# MagicaVoxel @ Ephtracy

# group
o House A1

# material
mtllib Isles-1-House A1.mtl
usemtl palette

# normals
vn -1 0 0
vn 1 0 0
vn 0 0 1
vn 0 0 -1
vn 0 -1 0
vn 0 1 0

# texcoords
vt 0.255859 0.5
vt 0.396484 0.5
vt 0.841797 0.5
vt 0.958984 0.5
vt 0.962891 0.5
vt 0.966797 0.5
vt 0.974609 0.5
vt 0.986328 0.5
vt 0.990234 0.5
vt 0.994141 0.5

# verts
v -2.3 0 1.9
v -2.3 0 1.8
v -2.3 0.1 1.9
v -2.3 0.1 1.8
v -2.2 0 2
v -2.2 0 1.9
v -2.2 0 1.8
v -2.2 0 1.7
v -2.2 0 1.6
v -2.2 0 1.5
v -2.2 0.1 2
v -2.2 0.1 1.9
v -2.2 0.1 1.8
v -2.2 0.1 1.7
v -2.2 0.1 1.6
v -2.2 0.1 1.5
v -2.2 0.2 1.9
v -2.2 0.2 1.8
v -2.1 0 1.5
v -2.1 0 1.4
v -2.1 0.1 1.8
v -2.1 0.1 1.7
v -2.1 0.1 1.6
v -2.1 0.1 1.5
v -2.1 0.1 1.4
v -2.1 0.2 1.8
v -2.1 0.3 1.8
v -2.1 0.3 1.7
v -2.1 0.3 1.6
v -2.1 0.3 1.5
v -2.1 0.4 1.7
v -2.1 0.4 1.6
v -2.1 0.5 1.5
v -2.1 0.5 1.4
v -2.1 0.6 1.5
v -2.1 0.6 1.4
v -2.1 0.6 1.3
v -2.1 0.7 1.4
v -2.1 0.7 1.3
v -2.1 0.8 1.4
v -2.1 0.8 1.3
v -2 0.1 1.7
v -2 0.1 1.6
v -2 0.1 1.5
v -2 0.1 1.4
v -2 0.2 1.9
v -2 0.2 1.8
v -2 0.2 1.7
v -2 0.2 1.6
v -2 0.2 1.5
v -2 0.2 1.4
v -2 0.3 1.9
v -2 0.3 1.8
v -2 0.3 1.7
v -2 0.3 1.6
v -2 0.3 1.5
v -2 0.3 1.4
v -2 0.4 1.7
v -2 0.4 1.6
v -2 0.4 1.5
v -2 0.4 1.4
v -2 0.5 1.8
v -2 0.5 1.5
v -2 0.5 1.4
v -2 0.5 1.3
v -2 0.6 1.5
v -2 0.6 1.4
v -2 0.6 1.3
v -2 0.7 1.5
v -2 0.7 1.4
v -1.9 0.3 1.9
v -1.9 0.3 1.8
v -1.9 0.3 1.4
v -1.9 0.3 1.3
v -1.9 0.4 1.9
v -1.9 0.4 1.8
v -1.9 0.4 1.5
v -1.9 0.4 1.4
v -1.9 0.4 1.3
v -1.9 0.5 1.7
v -1.9 0.5 1.6
v -1.9 0.5 1.5
v -1.9 0.5 1.4
v -1.9 0.6 1.7
v -1.9 0.6 1.6
v -1.7 0 1.9
v -1.7 0 1.8
v -1.7 0.1 1.9
v -1.7 0.1 1.8
v -2 0 2
v -2 0 1.9
v -2 0 1.8
v -2 0.1 2
v -2 0.1 1.9
v -2 0.1 1.8
v -2 0.6 1.4
v -2 0.6 1.3
v -2 0.7 1.4
v -2 0.7 1.3
v -2 0.8 1.4
v -2 0.8 1.3
v -1.9 0.5 1.4
v -1.9 0.5 1.3
v -1.9 0.6 1.5
v -1.9 0.6 1.4
v -1.9 0.6 1.3
v -1.9 0.7 1.5
v -1.9 0.7 1.4
v -1.8 0.3 1.9
v -1.8 0.3 1.8
v -1.8 0.3 1.4
v -1.8 0.3 1.3
v -1.8 0.4 1.9
v -1.8 0.4 1.8
v -1.8 0.4 1.5
v -1.8 0.4 1.4
v -1.8 0.4 1.3
v -1.8 0.5 1.7
v -1.8 0.5 1.6
v -1.8 0.5 1.5
v -1.8 0.5 1.4
v -1.8 0.6 1.7
v -1.8 0.6 1.6
v -1.8 0.6 1.5
v -1.8 0.6 1.4
v -1.7 0 1.8
v -1.7 0 1.5
v -1.7 0.1 1.9
v -1.7 0.1 1.8
v -1.7 0.1 1.5
v -1.7 0.1 1.4
v -1.7 0.3 1.9
v -1.7 0.3 1.8
v -1.7 0.3 1.7
v -1.7 0.3 1.6
v -1.7 0.3 1.5
v -1.7 0.3 1.4
v -1.7 0.4 1.7
v -1.7 0.4 1.6
v -1.7 0.4 1.5
v -1.7 0.4 1.4
v -1.7 0.5 1.8
v -1.7 0.5 1.5
v -1.6 0 1.9
v -1.6 0 1.8
v -1.6 0 1.5
v -1.6 0 1.4
v -1.6 0.1 1.9
v -1.6 0.1 1.8
v -1.6 0.1 1.5
v -1.6 0.1 1.4
v -1.6 0.3 1.8
v -1.6 0.3 1.7
v -1.6 0.3 1.6
v -1.6 0.3 1.5
v -1.6 0.4 1.7
v -1.6 0.4 1.6
v -2.2 0 2
v -2.2 0.1 2
v -2 0 2
v -2 0.1 2
v -2.3 0 1.9
v -2.3 0.1 1.9
v -2.2 0 1.9
v -2.2 0.1 1.9
v -2.2 0.2 1.9
v -2 0.1 1.9
v -2 0.2 1.9
v -2 0.3 1.9
v -1.9 0.3 1.9
v -1.9 0.4 1.9
v -1.8 0.3 1.9
v -1.8 0.4 1.9
v -1.7 0 1.9
v -1.7 0.1 1.9
v -1.7 0.3 1.9
v -1.6 0 1.9
v -1.6 0.1 1.9
v -2.1 0.2 1.8
v -2.1 0.3 1.8
v -2 0 1.8
v -2 0.1 1.8
v -2 0.2 1.8
v -2 0.3 1.8
v -2 0.5 1.8
v -1.9 0.3 1.8
v -1.9 0.4 1.8
v -1.8 0.3 1.8
v -1.8 0.4 1.8
v -1.7 0 1.8
v -1.7 0.1 1.8
v -1.7 0.3 1.8
v -1.7 0.5 1.8
v -1.6 0.1 1.8
v -1.6 0.3 1.8
v -2.1 0.3 1.7
v -2.1 0.4 1.7
v -2 0.3 1.7
v -2 0.4 1.7
v -1.9 0.5 1.7
v -1.9 0.6 1.7
v -1.8 0.5 1.7
v -1.8 0.6 1.7
v -1.7 0.3 1.7
v -1.7 0.4 1.7
v -1.6 0.3 1.7
v -1.6 0.4 1.7
v -2.1 0.1 1.6
v -2.1 0.3 1.6
v -2 0.1 1.6
v -2 0.2 1.6
v -2 0.3 1.6
v -2.1 0.5 1.5
v -2.1 0.6 1.5
v -2 0.5 1.5
v -2 0.6 1.5
v -2 0.7 1.5
v -1.9 0.5 1.5
v -1.9 0.6 1.5
v -1.9 0.7 1.5
v -1.8 0.5 1.5
v -1.8 0.6 1.5
v -1.7 0 1.5
v -1.7 0.1 1.5
v -1.6 0 1.5
v -1.6 0.1 1.5
v -2.1 0.6 1.4
v -2.1 0.7 1.4
v -2.1 0.8 1.4
v -2 0.6 1.4
v -2 0.7 1.4
v -2 0.8 1.4
v -2.3 0 1.8
v -2.3 0.1 1.8
v -2.2 0 1.8
v -2.2 0.1 1.8
v -2.2 0.2 1.8
v -2.1 0.1 1.8
v -2.1 0.2 1.8
v -1.7 0 1.8
v -1.7 0.1 1.8
v -1.6 0 1.8
v -1.6 0.1 1.8
v -2.1 0.1 1.7
v -2.1 0.3 1.7
v -2 0.1 1.7
v -2 0.2 1.7
v -2 0.3 1.7
v -2.1 0.3 1.6
v -2.1 0.4 1.6
v -2 0.3 1.6
v -2 0.4 1.6
v -1.9 0.5 1.6
v -1.9 0.6 1.6
v -1.8 0.5 1.6
v -1.8 0.6 1.6
v -1.7 0.3 1.6
v -1.7 0.4 1.6
v -1.6 0.3 1.6
v -1.6 0.4 1.6
v -2.2 0 1.5
v -2.2 0.1 1.5
v -2.1 0 1.5
v -2.1 0.1 1.5
v -2.1 0.3 1.5
v -2 0.1 1.5
v -2 0.2 1.5
v -2 0.3 1.5
v -2 0.4 1.5
v -2 0.5 1.5
v -1.9 0.4 1.5
v -1.9 0.5 1.5
v -1.8 0.4 1.5
v -1.8 0.5 1.5
v -1.7 0.1 1.5
v -1.7 0.3 1.5
v -1.7 0.4 1.5
v -1.7 0.5 1.5
v -1.6 0.1 1.5
v -1.6 0.3 1.5
v -2.1 0 1.4
v -2.1 0.1 1.4
v -2.1 0.5 1.4
v -2.1 0.6 1.4
v -2 0 1.4
v -2 0.1 1.4
v -2 0.2 1.4
v -2 0.3 1.4
v -2 0.4 1.4
v -2 0.5 1.4
v -2 0.6 1.4
v -2 0.7 1.4
v -1.9 0.1 1.4
v -1.9 0.2 1.4
v -1.9 0.3 1.4
v -1.9 0.4 1.4
v -1.9 0.5 1.4
v -1.9 0.6 1.4
v -1.9 0.7 1.4
v -1.8 0.1 1.4
v -1.8 0.3 1.4
v -1.8 0.4 1.4
v -1.8 0.5 1.4
v -1.8 0.6 1.4
v -1.7 0 1.4
v -1.7 0.1 1.4
v -1.7 0.3 1.4
v -1.7 0.4 1.4
v -1.6 0 1.4
v -1.6 0.1 1.4
v -2.1 0.6 1.3
v -2.1 0.7 1.3
v -2.1 0.8 1.3
v -2 0.5 1.3
v -2 0.6 1.3
v -2 0.7 1.3
v -2 0.8 1.3
v -1.9 0.3 1.3
v -1.9 0.4 1.3
v -1.9 0.5 1.3
v -1.9 0.6 1.3
v -1.8 0.3 1.3
v -1.8 0.4 1.3
v -2.2 0 2
v -2 0 2
v -2.3 0 1.9
v -2.2 0 1.9
v -2.1 0 1.9
v -2 0 1.9
v -1.7 0 1.9
v -1.6 0 1.9
v -2.3 0 1.8
v -2.2 0 1.8
v -2.1 0 1.8
v -2 0 1.8
v -1.7 0 1.8
v -1.6 0 1.8
v -2.2 0 1.7
v -2 0 1.7
v -2.2 0 1.6
v -2 0 1.6
v -2.2 0 1.5
v -2.1 0 1.5
v -2 0 1.5
v -1.7 0 1.5
v -1.6 0 1.5
v -2.1 0 1.4
v -2 0 1.4
v -1.7 0 1.4
v -1.6 0 1.4
v -2 0.1 1.9
v -1.7 0.1 1.9
v -2 0.1 1.8
v -1.7 0.1 1.8
v -1.6 0.1 1.8
v -1.7 0.1 1.5
v -1.6 0.1 1.5
v -2.1 0.3 1.7
v -2 0.3 1.7
v -2.1 0.3 1.6
v -2 0.3 1.6
v -1.9 0.3 1.4
v -1.8 0.3 1.4
v -1.9 0.3 1.3
v -1.8 0.3 1.3
v -2.1 0.5 1.5
v -2 0.5 1.5
v -1.9 0.5 1.5
v -2.1 0.5 1.4
v -2 0.5 1.4
v -1.9 0.5 1.4
v -2 0.5 1.3
v -1.9 0.5 1.3
v -2.1 0.6 1.4
v -2 0.6 1.4
v -2.1 0.6 1.3
v -2 0.6 1.3
v -2.2 0.1 2
v -2 0.1 2
v -2.3 0.1 1.9
v -2.2 0.1 1.9
v -2 0.1 1.9
v -1.7 0.1 1.9
v -1.6 0.1 1.9
v -2.3 0.1 1.8
v -2.2 0.1 1.8
v -2.1 0.1 1.8
v -1.7 0.1 1.8
v -1.6 0.1 1.8
v -2.2 0.1 1.7
v -2.1 0.1 1.7
v -2 0.1 1.7
v -2.2 0.1 1.6
v -2.1 0.1 1.6
v -2 0.1 1.6
v -2.2 0.1 1.5
v -2.1 0.1 1.5
v -2 0.1 1.5
v -1.7 0.1 1.5
v -1.6 0.1 1.5
v -2.1 0.1 1.4
v -2 0.1 1.4
v -1.7 0.1 1.4
v -1.6 0.1 1.4
v -2.2 0.2 1.9
v -2 0.2 1.9
v -2.2 0.2 1.8
v -2.1 0.2 1.8
v -2 0.2 1.8
v -2 0.3 1.9
v -1.9 0.3 1.9
v -1.8 0.3 1.9
v -1.7 0.3 1.9
v -2.1 0.3 1.8
v -2 0.3 1.8
v -1.9 0.3 1.8
v -1.8 0.3 1.8
v -1.7 0.3 1.8
v -1.6 0.3 1.8
v -2.1 0.3 1.7
v -2 0.3 1.7
v -1.7 0.3 1.7
v -1.6 0.3 1.7
v -2.1 0.3 1.6
v -2 0.3 1.6
v -1.7 0.3 1.6
v -1.6 0.3 1.6
v -2.1 0.3 1.5
v -2 0.3 1.5
v -1.7 0.3 1.5
v -1.6 0.3 1.5
v -1.9 0.4 1.9
v -1.8 0.4 1.9
v -1.9 0.4 1.8
v -1.8 0.4 1.8
v -2.1 0.4 1.7
v -2 0.4 1.7
v -1.7 0.4 1.7
v -1.6 0.4 1.7
v -2.1 0.4 1.6
v -2 0.4 1.6
v -1.7 0.4 1.6
v -1.6 0.4 1.6
v -2 0.4 1.5
v -1.9 0.4 1.5
v -1.8 0.4 1.5
v -1.7 0.4 1.5
v -2 0.4 1.4
v -1.9 0.4 1.4
v -1.8 0.4 1.4
v -1.7 0.4 1.4
v -1.9 0.4 1.3
v -1.8 0.4 1.3
v -2 0.5 1.8
v -1.7 0.5 1.8
v -1.9 0.5 1.7
v -1.8 0.5 1.7
v -1.9 0.5 1.6
v -1.8 0.5 1.6
v -2 0.5 1.5
v -1.9 0.5 1.5
v -1.8 0.5 1.5
v -1.7 0.5 1.5
v -1.9 0.6 1.7
v -1.8 0.6 1.7
v -1.9 0.6 1.6
v -1.8 0.6 1.6
v -2.1 0.6 1.5
v -2 0.6 1.5
v -1.9 0.6 1.5
v -1.8 0.6 1.5
v -2.1 0.6 1.4
v -2 0.6 1.4
v -1.9 0.6 1.4
v -1.8 0.6 1.4
v -2 0.6 1.3
v -1.9 0.6 1.3
v -2 0.7 1.5
v -1.9 0.7 1.5
v -2 0.7 1.4
v -1.9 0.7 1.4
v -2.1 0.8 1.4
v -2 0.8 1.4
v -2.1 0.8 1.3
v -2 0.8 1.3

# faces
f 3/9/1 2/9/1 1/9/1
f 4/9/1 2/9/1 3/9/1
f 11/9/1 6/9/1 5/9/1
f 12/9/1 6/9/1 11/9/1
f 13/2/1 8/2/1 7/2/1
f 14/3/1 9/3/1 8/3/1
f 14/2/1 8/2/1 13/2/1
f 15/2/1 10/2/1 9/2/1
f 15/3/1 9/3/1 14/3/1
f 16/2/1 10/2/1 15/2/1
f 17/9/1 13/9/1 12/9/1
f 18/9/1 13/9/1 17/9/1
f 24/1/1 20/1/1 19/1/1
f 25/1/1 20/1/1 24/1/1
f 26/2/1 22/2/1 21/2/1
f 27/2/1 22/2/1 26/2/1
f 28/2/1 22/2/1 27/2/1
f 29/2/1 24/2/1 23/2/1
f 30/2/1 24/2/1 29/2/1
f 31/2/1 29/2/1 28/2/1
f 32/2/1 29/2/1 31/2/1
f 35/5/1 34/5/1 33/5/1
f 36/5/1 34/5/1 35/5/1
f 38/5/1 37/5/1 36/5/1
f 39/5/1 37/5/1 38/5/1
f 40/4/1 39/4/1 38/4/1
f 41/4/1 39/4/1 40/4/1
f 48/3/1 43/3/1 42/3/1
f 49/3/1 43/3/1 48/3/1
f 50/8/1 45/8/1 44/8/1
f 51/8/1 45/8/1 50/8/1
f 52/2/1 47/2/1 46/2/1
f 53/2/1 47/2/1 52/2/1
f 54/2/1 49/2/1 48/2/1
f 55/2/1 49/2/1 54/2/1
f 56/9/1 51/9/1 50/9/1
f 57/9/1 51/9/1 56/9/1
f 58/2/1 54/2/1 53/2/1
f 59/2/1 56/2/1 55/2/1
f 60/10/1 57/10/1 56/10/1
f 60/2/1 56/2/1 59/2/1
f 61/10/1 57/10/1 60/10/1
f 62/2/1 59/2/1 58/2/1
f 62/2/1 58/2/1 53/2/1
f 62/2/1 60/2/1 59/2/1
f 63/2/1 60/2/1 62/2/1
f 67/6/1 65/6/1 64/6/1
f 68/6/1 65/6/1 67/6/1
f 69/5/1 67/5/1 66/5/1
f 70/5/1 67/5/1 69/5/1
f 75/2/1 72/2/1 71/2/1
f 76/2/1 72/2/1 75/2/1
f 78/10/1 74/10/1 73/10/1
f 79/10/1 74/10/1 78/10/1
f 82/8/1 78/8/1 77/8/1
f 83/8/1 78/8/1 82/8/1
f 84/2/1 81/2/1 80/2/1
f 85/2/1 81/2/1 84/2/1
f 88/1/1 87/1/1 86/1/1
f 89/1/1 87/1/1 88/1/1
f 90/9/2 91/9/2 93/9/2
f 91/1/2 92/1/2 94/1/2
f 93/9/2 91/9/2 94/9/2
f 94/1/2 92/1/2 95/1/2
f 96/5/2 97/5/2 98/5/2
f 98/5/2 97/5/2 99/5/2
f 98/4/2 99/4/2 100/4/2
f 100/4/2 99/4/2 101/4/2
f 102/6/2 103/6/2 105/6/2
f 105/6/2 103/6/2 106/6/2
f 104/5/2 105/5/2 107/5/2
f 107/5/2 105/5/2 108/5/2
f 109/2/2 110/2/2 113/2/2
f 113/2/2 110/2/2 114/2/2
f 111/10/2 112/10/2 116/10/2
f 116/10/2 112/10/2 117/10/2
f 115/8/2 116/8/2 120/8/2
f 120/8/2 116/8/2 121/8/2
f 118/2/2 119/2/2 122/2/2
f 122/2/2 119/2/2 123/2/2
f 120/7/2 121/7/2 124/7/2
f 124/7/2 121/7/2 125/7/2
f 126/2/2 127/2/2 129/2/2
f 129/2/2 127/2/2 130/2/2
f 128/2/2 129/2/2 132/2/2
f 132/2/2 129/2/2 133/2/2
f 130/9/2 131/9/2 136/9/2
f 136/9/2 131/9/2 137/9/2
f 133/2/2 134/2/2 138/2/2
f 135/2/2 136/2/2 139/2/2
f 136/10/2 137/10/2 140/10/2
f 139/2/2 136/2/2 140/2/2
f 140/10/2 137/10/2 141/10/2
f 138/2/2 139/2/2 142/2/2
f 133/2/2 138/2/2 142/2/2
f 139/2/2 140/2/2 142/2/2
f 142/2/2 140/2/2 143/2/2
f 144/1/2 145/1/2 148/1/2
f 148/1/2 145/1/2 149/1/2
f 146/1/2 147/1/2 150/1/2
f 150/1/2 147/1/2 151/1/2
f 149/2/2 150/2/2 152/2/2
f 152/2/2 150/2/2 153/2/2
f 153/2/2 150/2/2 154/2/2
f 154/2/2 150/2/2 155/2/2
f 153/2/2 154/2/2 156/2/2
f 156/2/2 154/2/2 157/2/2
f 160/9/3 159/9/3 158/9/3
f 161/9/3 159/9/3 160/9/3
f 164/9/3 163/9/3 162/9/3
f 165/9/3 163/9/3 164/9/3
f 167/9/3 166/9/3 165/9/3
f 168/9/3 166/9/3 167/9/3
f 170/2/3 168/2/3 167/2/3
f 170/2/3 169/2/3 168/2/3
f 172/2/3 170/2/3 167/2/3
f 172/2/3 171/2/3 170/2/3
f 173/2/3 171/2/3 172/2/3
f 175/2/3 172/2/3 167/2/3
f 176/2/3 172/2/3 175/2/3
f 177/1/3 175/1/3 174/1/3
f 178/1/3 175/1/3 177/1/3
f 183/2/3 180/2/3 179/2/3
f 184/2/3 180/2/3 183/2/3
f 186/2/3 185/2/3 184/2/3
f 187/2/3 185/2/3 186/2/3
f 189/2/3 185/2/3 187/2/3
f 190/2/3 182/2/3 181/2/3
f 191/2/3 182/2/3 190/2/3
f 192/2/3 189/2/3 188/2/3
f 193/2/3 185/2/3 189/2/3
f 193/2/3 189/2/3 192/2/3
f 194/2/3 192/2/3 191/2/3
f 195/2/3 192/2/3 194/2/3
f 198/2/3 197/2/3 196/2/3
f 199/2/3 197/2/3 198/2/3
f 202/2/3 201/2/3 200/2/3
f 203/2/3 201/2/3 202/2/3
f 206/2/3 205/2/3 204/2/3
f 207/2/3 205/2/3 206/2/3
f 210/2/3 209/2/3 208/2/3
f 211/2/3 209/2/3 210/2/3
f 212/2/3 209/2/3 211/2/3
f 215/5/3 214/5/3 213/5/3
f 216/5/3 214/5/3 215/5/3
f 218/6/3 216/6/3 215/6/3
f 219/5/3 217/5/3 216/5/3
f 219/6/3 216/6/3 218/6/3
f 220/5/3 217/5/3 219/5/3
f 221/7/3 219/7/3 218/7/3
f 222/7/3 219/7/3 221/7/3
f 225/1/3 224/1/3 223/1/3
f 226/1/3 224/1/3 225/1/3
f 230/5/3 228/5/3 227/5/3
f 231/4/3 229/4/3 228/4/3
f 231/5/3 228/5/3 230/5/3
f 232/4/3 229/4/3 231/4/3
f 233/9/4 234/9/4 235/9/4
f 235/9/4 234/9/4 236/9/4
f 236/9/4 237/9/4 238/9/4
f 238/9/4 237/9/4 239/9/4
f 240/1/4 241/1/4 242/1/4
f 242/1/4 241/1/4 243/1/4
f 244/2/4 245/2/4 246/2/4
f 246/2/4 245/2/4 247/2/4
f 247/2/4 245/2/4 248/2/4
f 249/2/4 250/2/4 251/2/4
f 251/2/4 250/2/4 252/2/4
f 253/2/4 254/2/4 255/2/4
f 255/2/4 254/2/4 256/2/4
f 257/2/4 258/2/4 259/2/4
f 259/2/4 258/2/4 260/2/4
f 261/2/4 262/2/4 263/2/4
f 263/2/4 262/2/4 264/2/4
f 264/2/4 265/2/4 266/2/4
f 266/2/4 265/2/4 267/2/4
f 267/2/4 265/2/4 268/2/4
f 269/2/4 270/2/4 271/2/4
f 271/2/4 270/2/4 272/2/4
f 273/2/4 274/2/4 277/2/4
f 277/2/4 274/2/4 278/2/4
f 275/2/4 276/2/4 279/2/4
f 279/2/4 276/2/4 280/2/4
f 281/1/4 282/1/4 285/1/4
f 285/1/4 282/1/4 286/1/4
f 283/5/4 284/5/4 290/5/4
f 290/5/4 284/5/4 291/5/4
f 285/10/4 286/10/4 293/10/4
f 286/8/4 287/8/4 293/8/4
f 287/9/4 288/9/4 294/9/4
f 293/8/4 287/8/4 294/8/4
f 288/10/4 289/10/4 295/10/4
f 294/9/4 288/9/4 295/9/4
f 295/10/4 289/10/4 296/10/4
f 291/5/4 292/5/4 298/5/4
f 298/5/4 292/5/4 299/5/4
f 293/10/4 294/10/4 300/10/4
f 285/10/4 293/10/4 300/10/4
f 294/10/4 295/10/4 300/10/4
f 300/10/4 295/10/4 301/10/4
f 296/8/4 297/8/4 302/8/4
f 297/7/4 298/7/4 303/7/4
f 302/8/4 297/8/4 303/8/4
f 303/7/4 298/7/4 304/7/4
f 285/10/4 300/10/4 305/10/4
f 300/9/4 301/9/4 306/9/4
f 305/10/4 300/10/4 306/10/4
f 301/10/4 302/10/4 307/10/4
f 306/9/4 301/9/4 307/9/4
f 307/10/4 302/10/4 308/10/4
f 305/1/4 306/1/4 309/1/4
f 309/1/4 306/1/4 310/1/4
f 311/5/4 312/5/4 315/5/4
f 312/4/4 313/4/4 316/4/4
f 315/5/4 312/5/4 316/5/4
f 316/4/4 313/4/4 317/4/4
f 314/6/4 315/6/4 320/6/4
f 320/6/4 315/6/4 321/6/4
f 318/10/4 319/10/4 322/10/4
f 322/10/4 319/10/4 323/10/4
f 327/9/5 325/9/5 324/9/5
f 328/9/5 325/9/5 327/9/5
f 329/9/5 325/9/5 328/9/5
f 332/9/5 327/9/5 326/9/5
f 332/9/5 328/9/5 327/9/5
f 333/9/5 328/9/5 332/9/5
f 334/1/5 329/1/5 328/1/5
f 334/9/5 328/9/5 333/9/5
f 335/1/5 329/1/5 334/1/5
f 336/1/5 331/1/5 330/1/5
f 337/1/5 331/1/5 336/1/5
f 338/2/5 335/2/5 334/2/5
f 338/2/5 336/2/5 335/2/5
f 338/2/5 334/2/5 333/2/5
f 339/2/5 336/2/5 338/2/5
f 340/3/5 339/3/5 338/3/5
f 341/2/5 336/2/5 339/2/5
f 341/3/5 339/3/5 340/3/5
f 342/2/5 341/2/5 340/2/5
f 343/2/5 341/2/5 342/2/5
f 344/2/5 336/2/5 341/2/5
f 344/2/5 341/2/5 343/2/5
f 345/2/5 336/2/5 344/2/5
f 347/1/5 344/1/5 343/1/5
f 348/10/5 345/10/5 344/10/5
f 348/1/5 344/1/5 347/1/5
f 349/1/5 346/1/5 345/1/5
f 349/10/5 345/10/5 348/10/5
f 350/1/5 346/1/5 349/1/5
f 353/2/5 352/2/5 351/2/5
f 354/2/5 352/2/5 353/2/5
f 356/2/5 355/2/5 354/2/5
f 357/2/5 355/2/5 356/2/5
f 360/2/5 359/2/5 358/2/5
f 361/2/5 359/2/5 360/2/5
f 364/10/5 363/10/5 362/10/5
f 365/10/5 363/10/5 364/10/5
f 369/5/5 367/5/5 366/5/5
f 370/6/5 368/6/5 367/6/5
f 370/5/5 367/5/5 369/5/5
f 371/6/5 368/6/5 370/6/5
f 372/6/5 371/6/5 370/6/5
f 373/6/5 371/6/5 372/6/5
f 376/5/5 375/5/5 374/5/5
f 377/5/5 375/5/5 376/5/5
f 378/9/6 379/9/6 381/9/6
f 381/9/6 379/9/6 382/9/6
f 380/9/6 381/9/6 385/9/6
f 385/9/6 381/9/6 386/9/6
f 383/1/6 384/1/6 388/1/6
f 388/1/6 384/1/6 389/1/6
f 386/2/6 387/2/6 390/2/6
f 390/2/6 387/2/6 391/2/6
f 390/3/6 391/3/6 393/3/6
f 391/3/6 392/3/6 393/3/6
f 393/3/6 392/3/6 394/3/6
f 394/3/6 392/3/6 395/3/6
f 393/2/6 394/2/6 396/2/6
f 396/2/6 394/2/6 397/2/6
f 397/1/6 398/1/6 401/1/6
f 401/1/6 398/1/6 402/1/6
f 399/1/6 400/1/6 403/1/6
f 403/1/6 400/1/6 404/1/6
f 405/9/6 406/9/6 407/9/6
f 407/9/6 406/9/6 408/9/6
f 408/9/6 406/9/6 409/9/6
f 410/2/6 411/2/6 415/2/6
f 415/2/6 411/2/6 416/2/6
f 412/2/6 413/2/6 417/2/6
f 417/2/6 413/2/6 418/2/6
f 414/2/6 415/2/6 420/2/6
f 420/2/6 415/2/6 421/2/6
f 418/2/6 419/2/6 422/2/6
f 422/2/6 419/2/6 423/2/6
f 424/2/6 425/2/6 428/2/6
f 428/2/6 425/2/6 429/2/6
f 426/2/6 427/2/6 430/2/6
f 430/2/6 427/2/6 431/2/6
f 432/2/6 433/2/6 434/2/6
f 434/2/6 433/2/6 435/2/6
f 436/2/6 437/2/6 440/2/6
f 440/2/6 437/2/6 441/2/6
f 438/2/6 439/2/6 442/2/6
f 442/2/6 439/2/6 443/2/6
f 444/10/6 445/10/6 448/10/6
f 448/10/6 445/10/6 449/10/6
f 446/10/6 447/10/6 450/10/6
f 450/10/6 447/10/6 451/10/6
f 449/10/6 450/10/6 452/10/6
f 452/10/6 450/10/6 453/10/6
f 454/2/6 455/2/6 456/2/6
f 456/2/6 455/2/6 457/2/6
f 454/2/6 456/2/6 458/2/6
f 457/2/6 455/2/6 459/2/6
f 454/2/6 458/2/6 460/2/6
f 458/2/6 459/2/6 460/2/6
f 460/2/6 459/2/6 461/2/6
f 459/2/6 455/2/6 462/2/6
f 461/2/6 459/2/6 462/2/6
f 462/2/6 455/2/6 463/2/6
f 464/2/6 465/2/6 466/2/6
f 466/2/6 465/2/6 467/2/6
f 468/5/6 469/5/6 472/5/6
f 472/5/6 469/5/6 473/5/6
f 470/7/6 471/7/6 474/7/6
f 474/7/6 471/7/6 475/7/6
f 473/6/6 474/6/6 476/6/6
f 476/6/6 474/6/6 477/6/6
f 478/5/6 479/5/6 480/5/6
f 480/5/6 479/5/6 481/5/6
f 482/4/6 483/4/6 484/4/6
f 484/4/6 483/4/6 485/4/6
