# MagicaVoxel @ Ephtracy

# group
o 

# material
mtllib S_WhalePartB.mtl
usemtl palette

# normals
vn -1 0 0
vn 1 0 0
vn 0 0 1
vn 0 0 -1
vn 0 -1 0
vn 0 1 0

# texcoords
vt 0.642578 0.5

# verts
v -1.3 -9.7 0.2
v -1.3 -9.7 -0.2
v -1.3 -9.5 0.2
v -1.3 -9.5 0.1
v -1.3 -9.5 -0.1
v -1.3 -9.5 -0.2
v -1.3 -9.4 0.1
v -1.3 -9.4 -0.1
v -1.2 -9.8 0.1
v -1.2 -9.8 -0.1
v -1.2 -9.7 0.1
v -1.2 -9.7 -0.1
v -1.2 -9.6 0.3
v -1.2 -9.6 0.2
v -1.2 -9.6 -0.2
v -1.2 -9.6 -0.3
v -1.2 -9.5 0.3
v -1.2 -9.5 0.2
v -1.2 -9.5 0.1
v -1.2 -9.5 -0.1
v -1.2 -9.5 -0.2
v -1.2 -9.5 -0.3
v -1.2 -9.4 0.2
v -1.2 -9.4 0.1
v -1.2 -9.4 -0.1
v -1.2 -9.4 -0.2
v -1.1 -9.7 0.3
v -1.1 -9.7 0.2
v -1.1 -9.7 -0.2
v -1.1 -9.7 -0.3
v -1.1 -9.6 0.3
v -1.1 -9.6 0.2
v -1.1 -9.6 -0.2
v -1.1 -9.6 -0.3
v -1 -9.8 0.2
v -1 -9.8 0.1
v -1 -9.8 -0.1
v -1 -9.8 -0.2
v -1 -9.7 0.2
v -1 -9.7 0.1
v -1 -9.7 -0.1
v -1 -9.7 -0.2
v -0.9 -9.9 0.1
v -0.9 -9.9 -0.1
v -0.9 -9.8 0.3
v -0.9 -9.8 0.2
v -0.9 -9.8 0.1
v -0.9 -9.8 -0.1
v -0.9 -9.8 -0.2
v -0.9 -9.8 -0.3
v -0.9 -9.7 0.3
v -0.9 -9.7 0.2
v -0.9 -9.7 -0.2
v -0.9 -9.7 -0.3
v -0.9 -9.5 0.2
v -0.9 -9.5 0.1
v -0.9 -9.5 -0.1
v -0.9 -9.5 -0.2
v -0.9 -9.4 0.2
v -0.9 -9.4 0.1
v -0.9 -9.4 -0.1
v -0.9 -9.4 -0.2
v -0.8 -9.9 0.1
v -0.8 -9.9 -0.1
v -0.8 -9.8 0.3
v -0.8 -9.8 0.1
v -0.8 -9.8 -0.1
v -0.8 -9.8 -0.3
v -0.8 -9.5 0.3
v -0.8 -9.5 0.1
v -0.8 -9.5 -0.1
v -0.8 -9.5 -0.3
v -0.8 -9.4 0.1
v -0.8 -9.4 -0.1
v -1.2 -9.6 0.3
v -1.2 -9.5 0.3
v -1.1 -9.7 0.3
v -1.1 -9.6 0.3
v -0.9 -9.8 0.3
v -0.9 -9.7 0.3
v -0.8 -9.8 0.3
v -0.8 -9.5 0.3
v -1.3 -9.7 0.2
v -1.3 -9.5 0.2
v -1.2 -9.6 0.2
v -1.2 -9.5 0.2
v -1.2 -9.4 0.2
v -1.1 -9.7 0.2
v -1.1 -9.6 0.2
v -1 -9.8 0.2
v -1 -9.7 0.2
v -0.9 -9.8 0.2
v -0.9 -9.7 0.2
v -0.9 -9.5 0.2
v -0.9 -9.4 0.2
v -1.3 -9.5 0.1
v -1.3 -9.4 0.1
v -1.2 -9.8 0.1
v -1.2 -9.7 0.1
v -1.2 -9.5 0.1
v -1.2 -9.4 0.1
v -1 -9.8 0.1
v -1 -9.7 0.1
v -0.9 -9.9 0.1
v -0.9 -9.8 0.1
v -0.9 -9.5 0.1
v -0.9 -9.4 0.1
v -0.8 -9.9 0.1
v -0.8 -9.8 0.1
v -0.8 -9.5 0.1
v -0.8 -9.4 0.1
v -1.3 -9.5 -0.1
v -1.3 -9.4 -0.1
v -1.2 -9.8 -0.1
v -1.2 -9.7 -0.1
v -1.2 -9.5 -0.1
v -1.2 -9.4 -0.1
v -1 -9.8 -0.1
v -1 -9.7 -0.1
v -0.9 -9.9 -0.1
v -0.9 -9.8 -0.1
v -0.9 -9.5 -0.1
v -0.9 -9.4 -0.1
v -0.8 -9.9 -0.1
v -0.8 -9.8 -0.1
v -0.8 -9.5 -0.1
v -0.8 -9.4 -0.1
v -1.3 -9.7 -0.2
v -1.3 -9.5 -0.2
v -1.2 -9.6 -0.2
v -1.2 -9.5 -0.2
v -1.2 -9.4 -0.2
v -1.1 -9.7 -0.2
v -1.1 -9.6 -0.2
v -1 -9.8 -0.2
v -1 -9.7 -0.2
v -0.9 -9.8 -0.2
v -0.9 -9.7 -0.2
v -0.9 -9.5 -0.2
v -0.9 -9.4 -0.2
v -1.2 -9.6 -0.3
v -1.2 -9.5 -0.3
v -1.1 -9.7 -0.3
v -1.1 -9.6 -0.3
v -0.9 -9.8 -0.3
v -0.9 -9.7 -0.3
v -0.8 -9.8 -0.3
v -0.8 -9.5 -0.3
v -0.9 -9.9 0.1
v -0.8 -9.9 0.1
v -0.9 -9.9 -0.1
v -0.8 -9.9 -0.1
v -0.9 -9.8 0.3
v -0.8 -9.8 0.3
v -1 -9.8 0.2
v -0.9 -9.8 0.2
v -1.2 -9.8 0.1
v -1 -9.8 0.1
v -0.9 -9.8 0.1
v -0.8 -9.8 0.1
v -1.2 -9.8 -0.1
v -1 -9.8 -0.1
v -0.9 -9.8 -0.1
v -0.8 -9.8 -0.1
v -1 -9.8 -0.2
v -0.9 -9.8 -0.2
v -0.9 -9.8 -0.3
v -0.8 -9.8 -0.3
v -1.1 -9.7 0.3
v -0.9 -9.7 0.3
v -1.3 -9.7 0.2
v -1.1 -9.7 0.2
v -1 -9.7 0.2
v -0.9 -9.7 0.2
v -1.2 -9.7 0.1
v -1 -9.7 0.1
v -1.2 -9.7 -0.1
v -1 -9.7 -0.1
v -1.3 -9.7 -0.2
v -1.1 -9.7 -0.2
v -1 -9.7 -0.2
v -0.9 -9.7 -0.2
v -1.1 -9.7 -0.3
v -0.9 -9.7 -0.3
v -1.2 -9.6 0.3
v -1.1 -9.6 0.3
v -1.2 -9.6 0.2
v -1.1 -9.6 0.2
v -1.2 -9.6 -0.2
v -1.1 -9.6 -0.2
v -1.2 -9.6 -0.3
v -1.1 -9.6 -0.3
v -1.2 -9.5 0.3
v -0.8 -9.5 0.3
v -1.3 -9.5 0.2
v -1.2 -9.5 0.2
v -0.9 -9.5 0.2
v -1.3 -9.5 0.1
v -1.2 -9.5 0.1
v -0.9 -9.5 0.1
v -0.8 -9.5 0.1
v -1.3 -9.5 -0.1
v -1.2 -9.5 -0.1
v -0.9 -9.5 -0.1
v -0.8 -9.5 -0.1
v -1.3 -9.5 -0.2
v -1.2 -9.5 -0.2
v -0.9 -9.5 -0.2
v -1.2 -9.5 -0.3
v -0.8 -9.5 -0.3
v -1.2 -9.4 0.2
v -0.9 -9.4 0.2
v -1.3 -9.4 0.1
v -1.2 -9.4 0.1
v -0.9 -9.4 0.1
v -0.8 -9.4 0.1
v -1.3 -9.4 -0.1
v -1.2 -9.4 -0.1
v -0.9 -9.4 -0.1
v -0.8 -9.4 -0.1
v -1.2 -9.4 -0.2
v -0.9 -9.4 -0.2

# faces
f 3/1/1 2/1/1 1/1/1
f 4/1/1 2/1/1 3/1/1
f 5/1/1 2/1/1 4/1/1
f 6/1/1 2/1/1 5/1/1
f 7/1/1 5/1/1 4/1/1
f 8/1/1 5/1/1 7/1/1
f 11/1/1 10/1/1 9/1/1
f 12/1/1 10/1/1 11/1/1
f 17/1/1 14/1/1 13/1/1
f 18/1/1 14/1/1 17/1/1
f 21/1/1 16/1/1 15/1/1
f 22/1/1 16/1/1 21/1/1
f 23/1/1 19/1/1 18/1/1
f 24/1/1 19/1/1 23/1/1
f 25/1/1 21/1/1 20/1/1
f 26/1/1 21/1/1 25/1/1
f 31/1/1 28/1/1 27/1/1
f 32/1/1 28/1/1 31/1/1
f 33/1/1 30/1/1 29/1/1
f 34/1/1 30/1/1 33/1/1
f 39/1/1 36/1/1 35/1/1
f 40/1/1 36/1/1 39/1/1
f 41/1/1 38/1/1 37/1/1
f 42/1/1 38/1/1 41/1/1
f 47/1/1 44/1/1 43/1/1
f 48/1/1 44/1/1 47/1/1
f 51/1/1 46/1/1 45/1/1
f 52/1/1 46/1/1 51/1/1
f 53/1/1 50/1/1 49/1/1
f 54/1/1 50/1/1 53/1/1
f 55/1/2 56/1/2 59/1/2
f 59/1/2 56/1/2 60/1/2
f 57/1/2 58/1/2 61/1/2
f 61/1/2 58/1/2 62/1/2
f 63/1/2 64/1/2 66/1/2
f 66/1/2 64/1/2 67/1/2
f 65/1/2 66/1/2 69/1/2
f 67/1/2 68/1/2 69/1/2
f 66/1/2 67/1/2 69/1/2
f 69/1/2 68/1/2 70/1/2
f 70/1/2 68/1/2 71/1/2
f 71/1/2 68/1/2 72/1/2
f 70/1/2 71/1/2 73/1/2
f 73/1/2 71/1/2 74/1/2
f 78/1/3 76/1/3 75/1/3
f 80/1/3 78/1/3 77/1/3
f 81/1/3 80/1/3 79/1/3
f 82/1/3 76/1/3 78/1/3
f 82/1/3 80/1/3 81/1/3
f 82/1/3 78/1/3 80/1/3
f 85/1/3 84/1/3 83/1/3
f 86/1/3 84/1/3 85/1/3
f 88/1/3 85/1/3 83/1/3
f 89/1/3 85/1/3 88/1/3
f 92/1/3 91/1/3 90/1/3
f 93/1/3 91/1/3 92/1/3
f 94/1/3 87/1/3 86/1/3
f 95/1/3 87/1/3 94/1/3
f 100/1/3 97/1/3 96/1/3
f 101/1/3 97/1/3 100/1/3
f 102/1/3 99/1/3 98/1/3
f 103/1/3 99/1/3 102/1/3
f 108/1/3 105/1/3 104/1/3
f 109/1/3 105/1/3 108/1/3
f 110/1/3 107/1/3 106/1/3
f 111/1/3 107/1/3 110/1/3
f 112/1/4 113/1/4 116/1/4
f 116/1/4 113/1/4 117/1/4
f 114/1/4 115/1/4 118/1/4
f 118/1/4 115/1/4 119/1/4
f 120/1/4 121/1/4 124/1/4
f 124/1/4 121/1/4 125/1/4
f 122/1/4 123/1/4 126/1/4
f 126/1/4 123/1/4 127/1/4
f 128/1/4 129/1/4 130/1/4
f 130/1/4 129/1/4 131/1/4
f 128/1/4 130/1/4 133/1/4
f 133/1/4 130/1/4 134/1/4
f 135/1/4 136/1/4 137/1/4
f 137/1/4 136/1/4 138/1/4
f 131/1/4 132/1/4 139/1/4
f 139/1/4 132/1/4 140/1/4
f 141/1/4 142/1/4 144/1/4
f 143/1/4 144/1/4 146/1/4
f 145/1/4 146/1/4 147/1/4
f 144/1/4 142/1/4 148/1/4
f 147/1/4 146/1/4 148/1/4
f 146/1/4 144/1/4 148/1/4
f 151/1/5 150/1/5 149/1/5
f 152/1/5 150/1/5 151/1/5
f 156/1/5 154/1/5 153/1/5
f 158/1/5 156/1/5 155/1/5
f 159/1/5 154/1/5 156/1/5
f 159/1/5 156/1/5 158/1/5
f 160/1/5 154/1/5 159/1/5
f 161/1/5 158/1/5 157/1/5
f 161/1/5 159/1/5 158/1/5
f 162/1/5 159/1/5 161/1/5
f 163/1/5 159/1/5 162/1/5
f 165/1/5 164/1/5 163/1/5
f 165/1/5 163/1/5 162/1/5
f 166/1/5 164/1/5 165/1/5
f 167/1/5 164/1/5 166/1/5
f 168/1/5 164/1/5 167/1/5
f 172/1/5 170/1/5 169/1/5
f 173/1/5 170/1/5 172/1/5
f 174/1/5 170/1/5 173/1/5
f 175/1/5 172/1/5 171/1/5
f 175/1/5 173/1/5 172/1/5
f 176/1/5 173/1/5 175/1/5
f 177/1/5 175/1/5 171/1/5
f 179/1/5 177/1/5 171/1/5
f 179/1/5 178/1/5 177/1/5
f 180/1/5 178/1/5 179/1/5
f 181/1/5 178/1/5 180/1/5
f 183/1/5 181/1/5 180/1/5
f 183/1/5 182/1/5 181/1/5
f 184/1/5 182/1/5 183/1/5
f 187/1/5 186/1/5 185/1/5
f 188/1/5 186/1/5 187/1/5
f 191/1/5 190/1/5 189/1/5
f 192/1/5 190/1/5 191/1/5
f 193/1/6 194/1/6 196/1/6
f 196/1/6 194/1/6 197/1/6
f 195/1/6 196/1/6 198/1/6
f 198/1/6 196/1/6 199/1/6
f 197/1/6 194/1/6 200/1/6
f 200/1/6 194/1/6 201/1/6
f 202/1/6 203/1/6 206/1/6
f 206/1/6 203/1/6 207/1/6
f 204/1/6 205/1/6 208/1/6
f 207/1/6 208/1/6 209/1/6
f 208/1/6 205/1/6 210/1/6
f 209/1/6 208/1/6 210/1/6
f 211/1/6 212/1/6 214/1/6
f 214/1/6 212/1/6 215/1/6
f 213/1/6 214/1/6 217/1/6
f 215/1/6 216/1/6 217/1/6
f 214/1/6 215/1/6 217/1/6
f 217/1/6 216/1/6 218/1/6
f 218/1/6 216/1/6 219/1/6
f 219/1/6 216/1/6 220/1/6
f 218/1/6 219/1/6 221/1/6
f 221/1/6 219/1/6 222/1/6
