# MagicaVoxel @ Ephtracy

# group
o 

# material
mtllib IslandTest_x1.mtl
usemtl palette

# normals
vn -1 0 0
vn 1 0 0
vn 0 0 1
vn 0 0 -1
vn 0 -1 0
vn 0 1 0

# texcoords
vt 0.0371094 0.5
vt 0.396484 0.5
vt 0.626953 0.5
vt 0.904297 0.5
vt 0.982422 0.5

# verts
v -0.6 0 0.3
v -0.6 0 -0.5
v -0.6 0.1 0.3
v -0.6 0.1 -0.5
v -0.5 0 0.4
v -0.5 0 0.3
v -0.5 0 -0.5
v -0.5 0 -0.6
v -0.5 0.1 0.4
v -0.5 0.1 0.3
v -0.5 0.1 0.2
v -0.5 0.1 -0.4
v -0.5 0.1 -0.5
v -0.5 0.1 -0.6
v -0.5 0.2 0.2
v -0.5 0.2 -0.4
v -0.4 0 0.5
v -0.4 0 0.4
v -0.4 0.1 0.5
v -0.4 0.1 0.4
v -0.4 0.1 0.3
v -0.4 0.1 0.2
v -0.4 0.1 -0.4
v -0.4 0.1 -0.5
v -0.4 0.2 0.3
v -0.4 0.2 0.2
v -0.4 0.2 -0.4
v -0.4 0.2 -0.5
v -0.4 0.4 -0.1
v -0.4 0.4 -0.2
v -0.4 0.5 -0.1
v -0.4 0.5 -0.2
v -0.3 0.1 0.4
v -0.3 0.1 0.3
v -0.3 0.2 0.4
v -0.3 0.2 0.3
v -0.3 0.2 0.1
v -0.3 0.2 -0.3
v -0.3 0.3 0.1
v -0.3 0.3 -0.1
v -0.3 0.3 -0.2
v -0.3 0.3 -0.3
v -0.3 0.4 0.1
v -0.3 0.4 -0.1
v -0.3 0.4 -0.2
v -0.3 0.4 -0.3
v -0.3 0.5 0.1
v -0.3 0.5 -0.1
v -0.3 0.5 -0.2
v -0.3 0.5 -0.3
v -0.3 0.6 -0.1
v -0.3 0.6 -0.2
v -0.2 0 0.6
v -0.2 0 0.5
v -0.2 0.1 0.6
v -0.2 0.1 0.5
v -0.2 0.2 0.2
v -0.2 0.2 0.1
v -0.2 0.3 0.2
v -0.2 0.3 0.1
v -0.2 0.3 5.96046e-008
v -0.2 0.4 0.2
v -0.2 0.4 0.1
v -0.2 0.4 5.96046e-008
v -0.2 0.5 0.2
v -0.2 0.5 0.1
v -0.2 0.5 5.96046e-008
v -0.2 0.6 0.1
v -0.2 0.6 5.96046e-008
v -0.1 0.1 0.5
v -0.1 0.1 0.4
v -0.1 0.2 0.5
v -0.1 0.2 0.4
v -0.1 0.2 0.3
v -0.1 0.2 0.2
v -0.1 0.3 0.3
v -0.1 0.3 0.2
v -0.1 0.3 -0.1
v -0.1 0.3 -0.2
v -0.1 0.4 -0.1
v -0.1 0.4 -0.2
v -0.1 0.5 5.96046e-008
v -0.1 0.5 -0.1
v -0.1 0.6 5.96046e-008
v -0.1 0.6 -0.1
v -5.96046e-008 0.3 0.3
v -5.96046e-008 0.3 5.96046e-008
v -5.96046e-008 0.4 0.3
v -5.96046e-008 0.4 0.2
v -5.96046e-008 0.4 5.96046e-008
v -5.96046e-008 0.5 0.2
v -5.96046e-008 0.5 0.1
v -5.96046e-008 0.6 0.2
v -5.96046e-008 0.6 0.1
v 0.1 0.4 0.3
v 0.1 0.4 0.2
v 0.1 0.4 0.1
v 0.1 0.4 5.96046e-008
v 0.1 0.5 0.1
v 0.1 0.5 5.96046e-008
v 0.1 0.6 0.3
v 0.1 0.6 0.2
v 0.1 0.6 0.1
v 0.1 0.9 0.2
v 0.1 0.9 0.1
v 0.2 0.3 5.96046e-008
v 0.2 0.3 -0.1
v 0.2 0.4 5.96046e-008
v 0.2 0.4 -0.1
v 0.2 0.5 0.1
v 0.2 0.5 5.96046e-008
v 0.2 0.6 0.1
v 0.2 0.6 5.96046e-008
v -0.2 0.3 -0.1
v -0.2 0.3 -0.2
v -0.2 0.4 -0.1
v -0.2 0.4 -0.2
v -0.2 0.5 -0.1
v -0.2 0.5 -0.2
v -0.2 0.6 -0.1
v -0.2 0.6 -0.2
v -0.1 0.1 -0.4
v -0.1 0.1 -0.5
v -0.1 0.2 -0.2
v -0.1 0.2 -0.3
v -0.1 0.2 -0.4
v -0.1 0.2 -0.5
v -0.1 0.3 0.1
v -0.1 0.3 5.96046e-008
v -0.1 0.3 -0.2
v -0.1 0.3 -0.3
v -0.1 0.4 0.1
v -0.1 0.4 5.96046e-008
v -0.1 0.4 -0.2
v -0.1 0.4 -0.3
v -0.1 0.5 0.1
v -0.1 0.5 5.96046e-008
v -0.1 0.5 -0.2
v -0.1 0.5 -0.3
v -0.1 0.6 0.1
v -0.1 0.6 5.96046e-008
v -5.96046e-008 0 -0.5
v -5.96046e-008 0 -0.6
v -5.96046e-008 0.1 -0.3
v -5.96046e-008 0.1 -0.4
v -5.96046e-008 0.1 -0.5
v -5.96046e-008 0.1 -0.6
v -5.96046e-008 0.2 -0.1
v -5.96046e-008 0.2 -0.2
v -5.96046e-008 0.2 -0.3
v -5.96046e-008 0.2 -0.4
v -5.96046e-008 0.3 -0.1
v -5.96046e-008 0.3 -0.2
v -5.96046e-008 0.4 0.1
v -5.96046e-008 0.4 5.96046e-008
v -5.96046e-008 0.4 -0.1
v -5.96046e-008 0.4 -0.2
v -5.96046e-008 0.5 0.1
v -5.96046e-008 0.5 5.96046e-008
v -5.96046e-008 0.5 -0.1
v -5.96046e-008 0.6 5.96046e-008
v -5.96046e-008 0.6 -0.1
v 0.1 0 -0.4
v 0.1 0 -0.5
v 0.1 0.1 -0.4
v 0.1 0.1 -0.5
v 0.1 0.4 5.96046e-008
v 0.1 0.4 -0.2
v 0.1 0.5 5.96046e-008
v 0.1 0.5 -0.2
v 0.2 0.5 0.3
v 0.2 0.5 0.2
v 0.2 0.6 0.3
v 0.2 0.6 0.2
v 0.2 0.7 0.2
v 0.2 0.7 0.1
v 0.2 0.9 0.2
v 0.2 0.9 0.1
v 0.3 0.3 0.3
v 0.3 0.3 0.2
v 0.3 0.3 5.96046e-008
v 0.3 0.3 -0.1
v 0.3 0.4 0.1
v 0.3 0.4 5.96046e-008
v 0.3 0.4 -0.1
v 0.3 0.5 0.3
v 0.3 0.5 0.2
v 0.3 0.5 0.1
v 0.3 0.6 0.1
v 0.3 0.6 5.96046e-008
v 0.3 0.7 0.2
v 0.3 0.7 0.1
v 0.4 0.1 0.5
v 0.4 0.1 0.4
v 0.4 0.1 -0.2
v 0.4 0.1 -0.3
v 0.4 0.2 0.5
v 0.4 0.2 0.4
v 0.4 0.2 0.3
v 0.4 0.2 0.2
v 0.4 0.2 5.96046e-008
v 0.4 0.2 -0.1
v 0.4 0.2 -0.2
v 0.4 0.2 -0.3
v 0.4 0.3 0.3
v 0.4 0.3 0.2
v 0.4 0.3 5.96046e-008
v 0.4 0.3 -0.1
v 0.4 0.4 0.1
v 0.4 0.4 5.96046e-008
v 0.4 0.5 0.2
v 0.4 0.5 0.1
v 0.5 0 0.6
v 0.5 0 0.5
v 0.5 0 -0.3
v 0.5 0 -0.4
v 0.5 0.1 0.6
v 0.5 0.1 0.5
v 0.5 0.1 0.4
v 0.5 0.1 0.3
v 0.5 0.1 -0.1
v 0.5 0.1 -0.2
v 0.5 0.1 -0.3
v 0.5 0.1 -0.4
v 0.5 0.2 0.4
v 0.5 0.2 0.3
v 0.5 0.2 0.2
v 0.5 0.2 5.96046e-008
v 0.5 0.2 -0.1
v 0.5 0.2 -0.2
v 0.5 0.3 0.2
v 0.5 0.3 5.96046e-008
v 0.6 0 0.5
v 0.6 0 -0.3
v 0.6 0.1 0.5
v 0.6 0.1 0.3
v 0.6 0.1 -0.1
v 0.6 0.1 -0.3
v 0.6 0.2 0.3
v 0.6 0.2 -0.1
v -0.2 0 0.6
v -0.2 0.1 0.6
v 0.5 0 0.6
v 0.5 0.1 0.6
v -0.4 0 0.5
v -0.4 0.1 0.5
v -0.2 0 0.5
v -0.2 0.1 0.5
v -0.1 0.1 0.5
v -0.1 0.2 0.5
v 0.4 0.1 0.5
v 0.4 0.2 0.5
v 0.5 0 0.5
v 0.5 0.1 0.5
v 0.6 0 0.5
v 0.6 0.1 0.5
v -0.5 0 0.4
v -0.5 0.1 0.4
v -0.4 0 0.4
v -0.4 0.1 0.4
v -0.3 0.1 0.4
v -0.3 0.2 0.4
v -0.1 0.1 0.4
v -0.1 0.2 0.4
v 0.4 0.1 0.4
v 0.4 0.2 0.4
v 0.5 0.1 0.4
v 0.5 0.2 0.4
v -0.6 0 0.3
v -0.6 0.1 0.3
v -0.5 0 0.3
v -0.5 0.1 0.3
v -0.4 0.1 0.3
v -0.4 0.2 0.3
v -0.3 0.1 0.3
v -0.3 0.2 0.3
v -0.1 0.2 0.3
v -0.1 0.3 0.3
v -5.96046e-008 0.3 0.3
v -5.96046e-008 0.4 0.3
v 0.1 0.4 0.3
v 0.1 0.6 0.3
v 0.2 0.5 0.3
v 0.2 0.6 0.3
v 0.3 0.3 0.3
v 0.3 0.5 0.3
v 0.4 0.2 0.3
v 0.4 0.3 0.3
v 0.5 0.1 0.3
v 0.5 0.2 0.3
v 0.6 0.1 0.3
v 0.6 0.2 0.3
v -0.5 0.1 0.2
v -0.5 0.2 0.2
v -0.4 0.1 0.2
v -0.4 0.2 0.2
v -0.2 0.2 0.2
v -0.2 0.3 0.2
v -0.2 0.4 0.2
v -0.2 0.5 0.2
v -0.1 0.2 0.2
v -0.1 0.3 0.2
v -5.96046e-008 0.4 0.2
v -5.96046e-008 0.5 0.2
v -5.96046e-008 0.6 0.2
v 0.1 0.4 0.2
v 0.1 0.6 0.2
v 0.1 0.9 0.2
v 0.2 0.5 0.2
v 0.2 0.6 0.2
v 0.2 0.7 0.2
v 0.2 0.9 0.2
v 0.3 0.3 0.2
v 0.3 0.5 0.2
v 0.3 0.7 0.2
v 0.4 0.2 0.2
v 0.4 0.3 0.2
v 0.4 0.5 0.2
v 0.5 0.2 0.2
v 0.5 0.3 0.2
v -0.3 0.2 0.1
v -0.3 0.3 0.1
v -0.3 0.4 0.1
v -0.3 0.5 0.1
v -0.2 0.2 0.1
v -0.2 0.3 0.1
v -0.2 0.4 0.1
v -0.2 0.5 0.1
v -0.2 0.6 0.1
v -0.1 0.3 0.1
v -0.1 0.4 0.1
v -0.1 0.5 0.1
v -0.1 0.6 0.1
v -0.1 0.5 5.96046e-008
v -0.1 0.6 5.96046e-008
v -5.96046e-008 0.4 5.96046e-008
v -5.96046e-008 0.5 5.96046e-008
v -5.96046e-008 0.6 5.96046e-008
v 0.1 0.4 5.96046e-008
v 0.1 0.5 5.96046e-008
v -0.4 0.4 -0.1
v -0.4 0.5 -0.1
v -0.3 0.3 -0.1
v -0.3 0.4 -0.1
v -0.3 0.5 -0.1
v -0.3 0.6 -0.1
v -0.2 0.3 -0.1
v -0.2 0.4 -0.1
v -0.2 0.5 -0.1
v -0.2 0.6 -0.1
v -0.1 0.3 -0.1
v -0.1 0.4 -0.1
v -5.96046e-008 0.3 -0.1
v -5.96046e-008 0.4 -0.1
v -5.96046e-008 0.4 0.1
v -5.96046e-008 0.5 0.1
v -5.96046e-008 0.6 0.1
v 0.1 0.4 0.1
v 0.1 0.5 0.1
v 0.1 0.6 0.1
v 0.1 0.9 0.1
v 0.2 0.5 0.1
v 0.2 0.6 0.1
v 0.2 0.7 0.1
v 0.2 0.9 0.1
v 0.3 0.4 0.1
v 0.3 0.5 0.1
v 0.3 0.6 0.1
v 0.3 0.7 0.1
v 0.4 0.4 0.1
v 0.4 0.5 0.1
v -0.2 0.3 5.96046e-008
v -0.2 0.4 5.96046e-008
v -0.2 0.5 5.96046e-008
v -0.2 0.6 5.96046e-008
v -0.1 0.3 5.96046e-008
v -0.1 0.4 5.96046e-008
v -0.1 0.5 5.96046e-008
v -0.1 0.6 5.96046e-008
v -5.96046e-008 0.3 5.96046e-008
v -5.96046e-008 0.4 5.96046e-008
v 0.1 0.4 5.96046e-008
v 0.1 0.5 5.96046e-008
v 0.2 0.3 5.96046e-008
v 0.2 0.4 5.96046e-008
v 0.2 0.5 5.96046e-008
v 0.2 0.6 5.96046e-008
v 0.3 0.3 5.96046e-008
v 0.3 0.4 5.96046e-008
v 0.3 0.6 5.96046e-008
v 0.4 0.2 5.96046e-008
v 0.4 0.3 5.96046e-008
v 0.4 0.4 5.96046e-008
v 0.5 0.2 5.96046e-008
v 0.5 0.3 5.96046e-008
v -0.1 0.5 -0.1
v -0.1 0.6 -0.1
v -5.96046e-008 0.2 -0.1
v -5.96046e-008 0.3 -0.1
v -5.96046e-008 0.5 -0.1
v -5.96046e-008 0.6 -0.1
v 0.2 0.3 -0.1
v 0.2 0.4 -0.1
v 0.3 0.3 -0.1
v 0.3 0.4 -0.1
v 0.4 0.2 -0.1
v 0.4 0.3 -0.1
v 0.5 0.1 -0.1
v 0.5 0.2 -0.1
v 0.6 0.1 -0.1
v 0.6 0.2 -0.1
v -0.4 0.4 -0.2
v -0.4 0.5 -0.2
v -0.3 0.3 -0.2
v -0.3 0.4 -0.2
v -0.3 0.5 -0.2
v -0.3 0.6 -0.2
v -0.2 0.3 -0.2
v -0.2 0.4 -0.2
v -0.2 0.5 -0.2
v -0.2 0.6 -0.2
v -0.1 0.2 -0.2
v -0.1 0.3 -0.2
v -0.1 0.4 -0.2
v -0.1 0.5 -0.2
v -5.96046e-008 0.2 -0.2
v -5.96046e-008 0.3 -0.2
v -5.96046e-008 0.4 -0.2
v 0.1 0.4 -0.2
v 0.1 0.5 -0.2
v 0.4 0.1 -0.2
v 0.4 0.2 -0.2
v 0.5 0.1 -0.2
v 0.5 0.2 -0.2
v -0.3 0.2 -0.3
v -0.3 0.3 -0.3
v -0.3 0.4 -0.3
v -0.3 0.5 -0.3
v -0.1 0.2 -0.3
v -0.1 0.3 -0.3
v -0.1 0.4 -0.3
v -0.1 0.5 -0.3
v -5.96046e-008 0.1 -0.3
v -5.96046e-008 0.2 -0.3
v 0.4 0.1 -0.3
v 0.4 0.2 -0.3
v 0.5 0 -0.3
v 0.5 0.1 -0.3
v 0.6 0 -0.3
v 0.6 0.1 -0.3
v -0.5 0.1 -0.4
v -0.5 0.2 -0.4
v -0.4 0.1 -0.4
v -0.4 0.2 -0.4
v -0.1 0.1 -0.4
v -0.1 0.2 -0.4
v -5.96046e-008 0.1 -0.4
v -5.96046e-008 0.2 -0.4
v 0.1 0 -0.4
v 0.1 0.1 -0.4
v 0.5 0 -0.4
v 0.5 0.1 -0.4
v -0.6 0 -0.5
v -0.6 0.1 -0.5
v -0.5 0 -0.5
v -0.5 0.1 -0.5
v -0.4 0.1 -0.5
v -0.4 0.2 -0.5
v -0.1 0.1 -0.5
v -0.1 0.2 -0.5
v -5.96046e-008 0 -0.5
v -5.96046e-008 0.1 -0.5
v 0.1 0 -0.5
v 0.1 0.1 -0.5
v -0.5 0 -0.6
v -0.5 0.1 -0.6
v -5.96046e-008 0 -0.6
v -5.96046e-008 0.1 -0.6
v -0.2 0 0.6
v 0.5 0 0.6
v -0.4 0 0.5
v -0.2 0 0.5
v 0.5 0 0.5
v 0.6 0 0.5
v -0.5 0 0.4
v -0.4 0 0.4
v -0.6 0 0.3
v -0.5 0 0.3
v 0.5 0 -0.3
v 0.6 0 -0.3
v 0.1 0 -0.4
v 0.5 0 -0.4
v -0.6 0 -0.5
v -0.5 0 -0.5
v -5.96046e-008 0 -0.5
v 0.1 0 -0.5
v -0.5 0 -0.6
v -5.96046e-008 0 -0.6
v -0.2 0.4 0.2
v -5.96046e-008 0.4 0.2
v -0.3 0.4 0.1
v -0.2 0.4 0.1
v -0.1 0.4 0.1
v -0.2 0.4 5.96046e-008
v -0.1 0.4 5.96046e-008
v -5.96046e-008 0.4 5.96046e-008
v 0.1 0.4 5.96046e-008
v -0.4 0.4 -0.1
v -0.3 0.4 -0.1
v -0.2 0.4 -0.1
v -0.1 0.4 -0.1
v -5.96046e-008 0.4 -0.1
v -0.4 0.4 -0.2
v -0.3 0.4 -0.2
v -0.2 0.4 -0.2
v -0.1 0.4 -0.2
v -5.96046e-008 0.4 -0.2
v 0.1 0.4 -0.2
v -0.3 0.4 -0.3
v -0.1 0.4 -0.3
v -0.2 0.1 0.6
v 0.5 0.1 0.6
v -0.4 0.1 0.5
v -0.2 0.1 0.5
v -0.1 0.1 0.5
v 0.4 0.1 0.5
v 0.5 0.1 0.5
v 0.6 0.1 0.5
v -0.5 0.1 0.4
v -0.4 0.1 0.4
v -0.3 0.1 0.4
v -0.1 0.1 0.4
v 0.4 0.1 0.4
v 0.5 0.1 0.4
v -0.6 0.1 0.3
v -0.5 0.1 0.3
v -0.4 0.1 0.3
v -0.3 0.1 0.3
v 0.5 0.1 0.3
v 0.6 0.1 0.3
v -0.5 0.1 0.2
v -0.4 0.1 0.2
v 0.5 0.1 -0.1
v 0.6 0.1 -0.1
v 0.4 0.1 -0.2
v 0.5 0.1 -0.2
v -5.96046e-008 0.1 -0.3
v 0.4 0.1 -0.3
v 0.5 0.1 -0.3
v 0.6 0.1 -0.3
v -0.5 0.1 -0.4
v -0.4 0.1 -0.4
v -0.1 0.1 -0.4
v -5.96046e-008 0.1 -0.4
v 0.1 0.1 -0.4
v 0.5 0.1 -0.4
v -0.6 0.1 -0.5
v -0.5 0.1 -0.5
v -0.4 0.1 -0.5
v -0.1 0.1 -0.5
v -5.96046e-008 0.1 -0.5
v 0.1 0.1 -0.5
v -0.5 0.1 -0.6
v -5.96046e-008 0.1 -0.6
v -0.1 0.2 0.5
v 0.4 0.2 0.5
v -0.3 0.2 0.4
v -0.1 0.2 0.4
v 0.4 0.2 0.4
v 0.5 0.2 0.4
v -0.4 0.2 0.3
v -0.3 0.2 0.3
v -0.1 0.2 0.3
v 0.4 0.2 0.3
v 0.5 0.2 0.3
v 0.6 0.2 0.3
v -0.5 0.2 0.2
v -0.4 0.2 0.2
v -0.3 0.2 0.2
v -0.2 0.2 0.2
v -0.1 0.2 0.2
v 0.4 0.2 0.2
v 0.5 0.2 0.2
v -0.3 0.2 0.1
v -0.2 0.2 0.1
v 0.4 0.2 5.96046e-008
v 0.5 0.2 5.96046e-008
v -5.96046e-008 0.2 -0.1
v 0.4 0.2 -0.1
v 0.5 0.2 -0.1
v 0.6 0.2 -0.1
v -0.1 0.2 -0.2
v -5.96046e-008 0.2 -0.2
v 0.4 0.2 -0.2
v 0.5 0.2 -0.2
v -0.3 0.2 -0.3
v -0.1 0.2 -0.3
v -5.96046e-008 0.2 -0.3
v 0.4 0.2 -0.3
v -0.5 0.2 -0.4
v -0.4 0.2 -0.4
v -0.1 0.2 -0.4
v -5.96046e-008 0.2 -0.4
v -0.4 0.2 -0.5
v -0.1 0.2 -0.5
v -0.1 0.3 0.3
v -5.96046e-008 0.3 0.3
v 0.3 0.3 0.3
v 0.4 0.3 0.3
v -0.2 0.3 0.2
v -0.1 0.3 0.2
v 0.3 0.3 0.2
v 0.4 0.3 0.2
v 0.5 0.3 0.2
v -0.3 0.3 0.1
v -0.2 0.3 0.1
v -0.1 0.3 0.1
v -0.2 0.3 5.96046e-008
v -0.1 0.3 5.96046e-008
v -5.96046e-008 0.3 5.96046e-008
v 0.2 0.3 5.96046e-008
v 0.3 0.3 5.96046e-008
v 0.4 0.3 5.96046e-008
v 0.5 0.3 5.96046e-008
v -0.3 0.3 -0.1
v -0.2 0.3 -0.1
v -0.1 0.3 -0.1
v -5.96046e-008 0.3 -0.1
v 0.2 0.3 -0.1
v 0.3 0.3 -0.1
v 0.4 0.3 -0.1
v -0.3 0.3 -0.2
v -0.2 0.3 -0.2
v -0.1 0.3 -0.2
v -0.3 0.3 -0.3
v -0.1 0.3 -0.3
v -5.96046e-008 0.4 0.3
v 0.1 0.4 0.3
v -5.96046e-008 0.4 0.2
v 0.1 0.4 0.2
v -5.96046e-008 0.4 0.1
v 0.1 0.4 0.1
v 0.3 0.4 0.1
v 0.4 0.4 0.1
v -5.96046e-008 0.4 5.96046e-008
v 0.1 0.4 5.96046e-008
v 0.2 0.4 5.96046e-008
v 0.3 0.4 5.96046e-008
v 0.4 0.4 5.96046e-008
v 0.2 0.4 -0.1
v 0.3 0.4 -0.1
v 0.2 0.5 0.3
v 0.3 0.5 0.3
v -0.2 0.5 0.2
v -5.96046e-008 0.5 0.2
v 0.2 0.5 0.2
v 0.3 0.5 0.2
v 0.4 0.5 0.2
v -0.3 0.5 0.1
v -0.2 0.5 0.1
v -0.1 0.5 0.1
v -5.96046e-008 0.5 0.1
v 0.1 0.5 0.1
v 0.2 0.5 0.1
v 0.3 0.5 0.1
v 0.4 0.5 0.1
v -0.2 0.5 5.96046e-008
v -0.1 0.5 5.96046e-008
v -5.96046e-008 0.5 5.96046e-008
v 0.1 0.5 5.96046e-008
v 0.2 0.5 5.96046e-008
v -0.4 0.5 -0.1
v -0.3 0.5 -0.1
v -0.2 0.5 -0.1
v -0.1 0.5 -0.1
v -5.96046e-008 0.5 -0.1
v -0.4 0.5 -0.2
v -0.3 0.5 -0.2
v -0.2 0.5 -0.2
v -0.1 0.5 -0.2
v 0.1 0.5 -0.2
v -0.3 0.5 -0.3
v -0.1 0.5 -0.3
v 0.1 0.6 0.3
v 0.2 0.6 0.3
v -5.96046e-008 0.6 0.2
v 0.1 0.6 0.2
v 0.2 0.6 0.2
v -0.2 0.6 0.1
v -0.1 0.6 0.1
v -5.96046e-008 0.6 0.1
v 0.1 0.6 0.1
v 0.2 0.6 0.1
v 0.3 0.6 0.1
v -0.2 0.6 5.96046e-008
v -0.1 0.6 5.96046e-008
v -5.96046e-008 0.6 5.96046e-008
v 0.2 0.6 5.96046e-008
v 0.3 0.6 5.96046e-008
v -0.3 0.6 -0.1
v -0.2 0.6 -0.1
v -0.1 0.6 -0.1
v -5.96046e-008 0.6 -0.1
v -0.3 0.6 -0.2
v -0.2 0.6 -0.2
v 0.2 0.7 0.2
v 0.3 0.7 0.2
v 0.2 0.7 0.1
v 0.3 0.7 0.1
v 0.1 0.9 0.2
v 0.2 0.9 0.2
v 0.1 0.9 0.1
v 0.2 0.9 0.1

# faces
f 3/1/1 2/1/1 1/1/1
f 4/1/1 2/1/1 3/1/1
f 9/1/1 6/1/1 5/1/1
f 10/1/1 6/1/1 9/1/1
f 13/1/1 8/1/1 7/1/1
f 14/1/1 8/1/1 13/1/1
f 15/1/1 12/1/1 11/1/1
f 16/1/1 12/1/1 15/1/1
f 19/1/1 18/1/1 17/1/1
f 20/1/1 18/1/1 19/1/1
f 25/1/1 22/1/1 21/1/1
f 26/1/1 22/1/1 25/1/1
f 27/1/1 24/1/1 23/1/1
f 28/1/1 24/1/1 27/1/1
f 31/4/1 30/4/1 29/4/1
f 32/4/1 30/4/1 31/4/1
f 35/1/1 34/1/1 33/1/1
f 36/1/1 34/1/1 35/1/1
f 39/3/1 38/3/1 37/3/1
f 40/3/1 38/3/1 39/3/1
f 41/3/1 38/3/1 40/3/1
f 42/3/1 38/3/1 41/3/1
f 44/2/1 41/2/1 40/2/1
f 45/2/1 41/2/1 44/2/1
f 47/4/1 44/4/1 43/4/1
f 48/4/1 44/4/1 47/4/1
f 49/4/1 46/4/1 45/4/1
f 50/4/1 46/4/1 49/4/1
f 51/4/1 49/4/1 48/4/1
f 52/4/1 49/4/1 51/4/1
f 55/1/1 54/1/1 53/1/1
f 56/1/1 54/1/1 55/1/1
f 59/3/1 58/3/1 57/3/1
f 60/3/1 58/3/1 59/3/1
f 63/2/1 61/2/1 60/2/1
f 64/2/1 61/2/1 63/2/1
f 65/4/1 63/4/1 62/4/1
f 66/4/1 63/4/1 65/4/1
f 68/4/1 67/4/1 66/4/1
f 69/4/1 67/4/1 68/4/1
f 72/1/1 71/1/1 70/1/1
f 73/1/1 71/1/1 72/1/1
f 76/3/1 75/3/1 74/3/1
f 77/3/1 75/3/1 76/3/1
f 80/2/1 79/2/1 78/2/1
f 81/2/1 79/2/1 80/2/1
f 84/4/1 83/4/1 82/4/1
f 85/4/1 83/4/1 84/4/1
f 88/5/1 87/5/1 86/5/1
f 89/5/1 87/5/1 88/5/1
f 90/5/1 87/5/1 89/5/1
f 93/5/1 92/5/1 91/5/1
f 94/5/1 92/5/1 93/5/1
f 99/5/1 98/5/1 97/5/1
f 100/5/1 98/5/1 99/5/1
f 101/5/1 96/5/1 95/5/1
f 102/5/1 96/5/1 101/5/1
f 104/5/1 103/5/1 102/5/1
f 105/5/1 103/5/1 104/5/1
f 108/5/1 107/5/1 106/5/1
f 109/5/1 107/5/1 108/5/1
f 112/5/1 111/5/1 110/5/1
f 113/5/1 111/5/1 112/5/1
f 114/2/2 115/2/2 116/2/2
f 116/2/2 115/2/2 117/2/2
f 118/4/2 119/4/2 120/4/2
f 120/4/2 119/4/2 121/4/2
f 122/1/2 123/1/2 126/1/2
f 126/1/2 123/1/2 127/1/2
f 124/3/2 125/3/2 130/3/2
f 130/3/2 125/3/2 131/3/2
f 128/2/2 129/2/2 132/2/2
f 132/2/2 129/2/2 133/2/2
f 134/4/2 135/4/2 138/4/2
f 138/4/2 135/4/2 139/4/2
f 136/4/2 137/4/2 140/4/2
f 140/4/2 137/4/2 141/4/2
f 142/1/2 143/1/2 146/1/2
f 146/1/2 143/1/2 147/1/2
f 144/1/2 145/1/2 150/1/2
f 150/1/2 145/1/2 151/1/2
f 148/3/2 149/3/2 152/3/2
f 152/3/2 149/3/2 153/3/2
f 152/2/2 153/2/2 156/2/2
f 156/2/2 153/2/2 157/2/2
f 154/4/2 155/4/2 158/4/2
f 158/4/2 155/4/2 159/4/2
f 159/4/2 160/4/2 161/4/2
f 161/4/2 160/4/2 162/4/2
f 163/1/2 164/1/2 165/1/2
f 165/1/2 164/1/2 166/1/2
f 167/4/2 168/4/2 169/4/2
f 169/4/2 168/4/2 170/4/2
f 171/5/2 172/5/2 173/5/2
f 173/5/2 172/5/2 174/5/2
f 175/5/2 176/5/2 177/5/2
f 177/5/2 176/5/2 178/5/2
f 181/5/2 182/5/2 184/5/2
f 184/5/2 182/5/2 185/5/2
f 179/5/2 180/5/2 186/5/2
f 186/5/2 180/5/2 187/5/2
f 183/5/2 184/5/2 188/5/2
f 187/5/2 188/5/2 189/5/2
f 188/5/2 184/5/2 189/5/2
f 189/5/2 184/5/2 190/5/2
f 187/5/2 189/5/2 191/5/2
f 191/5/2 189/5/2 192/5/2
f 193/1/2 194/1/2 197/1/2
f 197/1/2 194/1/2 198/1/2
f 195/1/2 196/1/2 203/1/2
f 203/1/2 196/1/2 204/1/2
f 199/3/2 200/3/2 205/3/2
f 205/3/2 200/3/2 206/3/2
f 201/3/2 202/3/2 207/3/2
f 207/3/2 202/3/2 208/3/2
f 206/5/2 207/5/2 209/5/2
f 209/5/2 207/5/2 210/5/2
f 206/5/2 209/5/2 211/5/2
f 211/5/2 209/5/2 212/5/2
f 213/1/2 214/1/2 217/1/2
f 217/1/2 214/1/2 218/1/2
f 215/1/2 216/1/2 223/1/2
f 223/1/2 216/1/2 224/1/2
f 219/1/2 220/1/2 225/1/2
f 225/1/2 220/1/2 226/1/2
f 221/1/2 222/1/2 229/1/2
f 229/1/2 222/1/2 230/1/2
f 227/3/2 228/3/2 231/3/2
f 231/3/2 228/3/2 232/3/2
f 233/1/2 234/1/2 235/1/2
f 235/1/2 234/1/2 236/1/2
f 236/1/2 234/1/2 237/1/2
f 237/1/2 234/1/2 238/1/2
f 236/1/2 237/1/2 239/1/2
f 239/1/2 237/1/2 240/1/2
f 243/1/3 242/1/3 241/1/3
f 244/1/3 242/1/3 243/1/3
f 247/1/3 246/1/3 245/1/3
f 248/1/3 246/1/3 247/1/3
f 251/1/3 250/1/3 249/1/3
f 252/1/3 250/1/3 251/1/3
f 255/1/3 254/1/3 253/1/3
f 256/1/3 254/1/3 255/1/3
f 259/1/3 258/1/3 257/1/3
f 260/1/3 258/1/3 259/1/3
f 263/1/3 262/1/3 261/1/3
f 264/1/3 262/1/3 263/1/3
f 267/1/3 266/1/3 265/1/3
f 268/1/3 266/1/3 267/1/3
f 271/1/3 270/1/3 269/1/3
f 272/1/3 270/1/3 271/1/3
f 275/1/3 274/1/3 273/1/3
f 276/1/3 274/1/3 275/1/3
f 279/3/3 278/3/3 277/3/3
f 281/5/3 280/5/3 279/5/3
f 283/5/3 282/5/3 281/5/3
f 284/5/3 282/5/3 283/5/3
f 285/3/3 279/3/3 277/3/3
f 285/5/3 281/5/3 279/5/3
f 285/5/3 283/5/3 281/5/3
f 286/5/3 283/5/3 285/5/3
f 287/3/3 285/3/3 277/3/3
f 288/3/3 285/3/3 287/3/3
f 291/1/3 290/1/3 289/1/3
f 292/1/3 290/1/3 291/1/3
f 295/1/3 294/1/3 293/1/3
f 296/1/3 294/1/3 295/1/3
f 301/3/3 298/3/3 297/3/3
f 302/3/3 298/3/3 301/3/3
f 303/4/3 300/4/3 299/4/3
f 304/4/3 300/4/3 303/4/3
f 306/5/3 304/5/3 303/5/3
f 306/5/3 305/5/3 304/5/3
f 307/5/3 305/5/3 306/5/3
f 310/5/3 308/5/3 307/5/3
f 311/5/3 308/5/3 310/5/3
f 312/5/3 308/5/3 311/5/3
f 314/5/3 310/5/3 309/5/3
f 314/5/3 311/5/3 310/5/3
f 315/5/3 311/5/3 314/5/3
f 317/5/3 314/5/3 313/5/3
f 318/5/3 314/5/3 317/5/3
f 319/3/3 317/3/3 316/3/3
f 320/3/3 317/3/3 319/3/3
f 325/3/3 322/3/3 321/3/3
f 326/3/3 322/3/3 325/3/3
f 327/4/3 324/4/3 323/4/3
f 328/4/3 324/4/3 327/4/3
f 330/2/3 327/2/3 326/2/3
f 331/2/3 327/2/3 330/2/3
f 332/4/3 329/4/3 328/4/3
f 333/4/3 329/4/3 332/4/3
f 337/4/3 335/4/3 334/4/3
f 338/4/3 335/4/3 337/4/3
f 339/4/3 337/4/3 336/4/3
f 340/4/3 337/4/3 339/4/3
f 344/4/3 342/4/3 341/4/3
f 345/4/3 342/4/3 344/4/3
f 347/2/3 344/2/3 343/2/3
f 348/2/3 344/2/3 347/2/3
f 349/4/3 346/4/3 345/4/3
f 350/4/3 346/4/3 349/4/3
f 353/2/3 352/2/3 351/2/3
f 354/2/3 352/2/3 353/2/3
f 355/5/4 356/5/4 358/5/4
f 356/5/4 357/5/4 358/5/4
f 358/5/4 357/5/4 359/5/4
f 359/5/4 357/5/4 360/5/4
f 360/5/4 361/5/4 362/5/4
f 359/5/4 360/5/4 362/5/4
f 362/5/4 361/5/4 363/5/4
f 363/5/4 361/5/4 364/5/4
f 364/5/4 361/5/4 365/5/4
f 363/5/4 364/5/4 368/5/4
f 368/5/4 364/5/4 369/5/4
f 366/5/4 367/5/4 370/5/4
f 370/5/4 367/5/4 371/5/4
f 372/2/4 373/2/4 376/2/4
f 376/2/4 373/2/4 377/2/4
f 374/4/4 375/4/4 378/4/4
f 378/4/4 375/4/4 379/4/4
f 380/5/4 381/5/4 382/5/4
f 380/5/4 382/5/4 384/5/4
f 382/5/4 383/5/4 384/5/4
f 384/5/4 383/5/4 385/5/4
f 385/5/4 383/5/4 386/5/4
f 386/5/4 387/5/4 389/5/4
f 385/5/4 386/5/4 389/5/4
f 389/5/4 387/5/4 390/5/4
f 388/5/4 389/5/4 392/5/4
f 392/5/4 389/5/4 393/5/4
f 391/3/4 392/3/4 394/3/4
f 394/3/4 392/3/4 395/3/4
f 396/4/4 397/4/4 400/4/4
f 400/4/4 397/4/4 401/4/4
f 398/3/4 399/3/4 402/3/4
f 398/3/4 402/3/4 404/3/4
f 402/5/4 403/5/4 404/5/4
f 404/5/4 403/5/4 405/5/4
f 398/3/4 404/3/4 406/3/4
f 406/3/4 404/3/4 407/3/4
f 408/1/4 409/1/4 410/1/4
f 410/1/4 409/1/4 411/1/4
f 412/4/4 413/4/4 415/4/4
f 415/4/4 413/4/4 416/4/4
f 414/2/4 415/2/4 418/2/4
f 418/2/4 415/2/4 419/2/4
f 416/4/4 417/4/4 420/4/4
f 420/4/4 417/4/4 421/4/4
f 422/3/4 423/3/4 426/3/4
f 423/2/4 424/2/4 427/2/4
f 426/3/4 423/3/4 427/3/4
f 424/4/4 425/4/4 428/4/4
f 427/2/4 424/2/4 428/2/4
f 428/4/4 425/4/4 429/4/4
f 429/4/4 425/4/4 430/4/4
f 431/1/4 432/1/4 433/1/4
f 433/1/4 432/1/4 434/1/4
f 435/3/4 436/3/4 439/3/4
f 439/3/4 436/3/4 440/3/4
f 437/4/4 438/4/4 441/4/4
f 441/4/4 438/4/4 442/4/4
f 443/1/4 444/1/4 445/1/4
f 445/1/4 444/1/4 446/1/4
f 447/1/4 448/1/4 449/1/4
f 449/1/4 448/1/4 450/1/4
f 451/1/4 452/1/4 453/1/4
f 453/1/4 452/1/4 454/1/4
f 455/1/4 456/1/4 457/1/4
f 457/1/4 456/1/4 458/1/4
f 459/1/4 460/1/4 461/1/4
f 461/1/4 460/1/4 462/1/4
f 463/1/4 464/1/4 465/1/4
f 465/1/4 464/1/4 466/1/4
f 467/1/4 468/1/4 469/1/4
f 469/1/4 468/1/4 470/1/4
f 471/1/4 472/1/4 473/1/4
f 473/1/4 472/1/4 474/1/4
f 475/1/4 476/1/4 477/1/4
f 477/1/4 476/1/4 478/1/4
f 482/1/5 480/1/5 479/1/5
f 483/1/5 480/1/5 482/1/5
f 486/1/5 482/1/5 481/1/5
f 486/1/5 484/1/5 483/1/5
f 486/1/5 483/1/5 482/1/5
f 488/1/5 486/1/5 485/1/5
f 489/1/5 484/1/5 486/1/5
f 489/1/5 488/1/5 487/1/5
f 489/1/5 486/1/5 488/1/5
f 490/1/5 484/1/5 489/1/5
f 491/1/5 489/1/5 487/1/5
f 492/1/5 489/1/5 491/1/5
f 493/1/5 491/1/5 487/1/5
f 494/1/5 491/1/5 493/1/5
f 495/1/5 491/1/5 494/1/5
f 496/1/5 491/1/5 495/1/5
f 497/1/5 495/1/5 494/1/5
f 498/1/5 495/1/5 497/1/5
f 502/4/5 500/4/5 499/4/5
f 503/4/5 500/4/5 502/4/5
f 504/4/5 502/4/5 501/4/5
f 505/4/5 500/4/5 503/4/5
f 506/4/5 500/4/5 505/4/5
f 509/4/5 504/4/5 501/4/5
f 509/4/5 507/4/5 506/4/5
f 509/4/5 506/4/5 505/4/5
f 509/4/5 505/4/5 504/4/5
f 510/4/5 507/4/5 509/4/5
f 511/4/5 507/4/5 510/4/5
f 512/4/5 507/4/5 511/4/5
f 513/4/5 509/4/5 508/4/5
f 514/4/5 509/4/5 513/4/5
f 515/4/5 511/4/5 510/4/5
f 516/4/5 511/4/5 515/4/5
f 517/4/5 507/4/5 512/4/5
f 518/4/5 507/4/5 517/4/5
f 519/4/5 516/4/5 515/4/5
f 519/4/5 515/4/5 514/4/5
f 520/4/5 516/4/5 519/4/5
f 521/1/6 522/1/6 524/1/6
f 524/1/6 522/1/6 525/1/6
f 525/1/6 522/1/6 526/1/6
f 526/1/6 522/1/6 527/1/6
f 523/1/6 524/1/6 530/1/6
f 524/1/6 525/1/6 530/1/6
f 530/1/6 525/1/6 531/1/6
f 531/1/6 525/1/6 532/1/6
f 526/1/6 527/1/6 533/1/6
f 527/1/6 528/1/6 533/1/6
f 533/1/6 528/1/6 534/1/6
f 530/1/6 531/1/6 536/1/6
f 529/1/6 530/1/6 536/1/6
f 536/1/6 531/1/6 537/1/6
f 537/1/6 531/1/6 538/1/6
f 534/1/6 528/1/6 539/1/6
f 539/1/6 528/1/6 540/1/6
f 535/1/6 536/1/6 541/1/6
f 536/1/6 537/1/6 541/1/6
f 541/1/6 537/1/6 542/1/6
f 543/1/6 544/1/6 546/1/6
f 545/1/6 546/1/6 548/1/6
f 546/1/6 544/1/6 549/1/6
f 548/1/6 546/1/6 549/1/6
f 549/1/6 544/1/6 550/1/6
f 535/1/6 541/1/6 551/1/6
f 547/1/6 548/1/6 554/1/6
f 548/1/6 549/1/6 554/1/6
f 554/1/6 549/1/6 555/1/6
f 555/1/6 549/1/6 556/1/6
f 551/1/6 552/1/6 557/1/6
f 535/1/6 551/1/6 557/1/6
f 557/1/6 552/1/6 558/1/6
f 558/1/6 552/1/6 559/1/6
f 554/1/6 555/1/6 560/1/6
f 553/1/6 554/1/6 560/1/6
f 560/1/6 555/1/6 561/1/6
f 561/1/6 555/1/6 562/1/6
f 558/1/6 559/1/6 563/1/6
f 560/1/6 561/1/6 563/1/6
f 559/1/6 560/1/6 563/1/6
f 563/1/6 561/1/6 564/1/6
f 565/1/6 566/1/6 568/1/6
f 568/1/6 566/1/6 569/1/6
f 567/1/6 568/1/6 572/1/6
f 568/3/6 569/3/6 573/3/6
f 572/1/6 568/1/6 573/1/6
f 569/1/6 570/1/6 574/1/6
f 573/3/6 569/3/6 574/3/6
f 574/1/6 570/1/6 575/1/6
f 571/1/6 572/1/6 578/1/6
f 572/3/6 573/3/6 579/3/6
f 578/1/6 572/1/6 579/1/6
f 579/3/6 573/3/6 580/3/6
f 580/3/6 573/3/6 581/3/6
f 574/3/6 575/3/6 582/3/6
f 575/1/6 576/1/6 583/1/6
f 582/3/6 575/3/6 583/3/6
f 578/3/6 579/3/6 584/3/6
f 579/3/6 580/3/6 584/3/6
f 584/3/6 580/3/6 585/3/6
f 583/1/6 576/1/6 587/1/6
f 586/3/6 587/3/6 589/3/6
f 587/1/6 576/1/6 590/1/6
f 589/3/6 587/3/6 590/3/6
f 590/1/6 576/1/6 591/1/6
f 588/3/6 589/3/6 593/3/6
f 589/1/6 590/1/6 594/1/6
f 593/3/6 589/3/6 594/3/6
f 594/1/6 590/1/6 595/1/6
f 578/3/6 584/3/6 596/3/6
f 592/3/6 593/3/6 597/3/6
f 593/1/6 594/1/6 598/1/6
f 597/3/6 593/3/6 598/3/6
f 598/1/6 594/1/6 599/1/6
f 577/1/6 578/1/6 600/1/6
f 578/3/6 596/3/6 601/3/6
f 600/1/6 578/1/6 601/1/6
f 596/3/6 597/3/6 601/3/6
f 597/1/6 598/1/6 602/1/6
f 601/3/6 597/3/6 602/3/6
f 602/1/6 598/1/6 603/1/6
f 601/1/6 602/1/6 604/1/6
f 604/1/6 602/1/6 605/1/6
f 606/3/6 607/3/6 611/3/6
f 608/3/6 609/3/6 612/3/6
f 612/3/6 609/3/6 613/3/6
f 610/3/6 611/3/6 616/3/6
f 611/3/6 607/3/6 617/3/6
f 616/3/6 611/3/6 617/3/6
f 615/3/6 616/3/6 618/3/6
f 617/3/6 607/3/6 619/3/6
f 619/3/6 607/3/6 620/3/6
f 613/3/6 614/3/6 623/3/6
f 623/3/6 614/3/6 624/3/6
f 620/3/6 621/3/6 625/3/6
f 615/3/6 618/3/6 625/3/6
f 618/3/6 619/3/6 625/3/6
f 619/3/6 620/3/6 625/3/6
f 625/3/6 621/3/6 626/3/6
f 626/3/6 621/3/6 627/3/6
f 627/3/6 621/3/6 628/3/6
f 628/3/6 621/3/6 629/3/6
f 622/3/6 623/3/6 630/3/6
f 630/3/6 623/3/6 631/3/6
f 626/3/6 627/3/6 633/3/6
f 633/3/6 627/3/6 634/3/6
f 632/3/6 633/3/6 635/3/6
f 633/3/6 634/3/6 635/3/6
f 635/3/6 634/3/6 636/3/6
f 637/5/6 638/5/6 639/5/6
f 639/5/6 638/5/6 640/5/6
f 641/5/6 642/5/6 645/5/6
f 645/5/6 642/5/6 646/5/6
f 643/5/6 644/5/6 648/5/6
f 648/5/6 644/5/6 649/5/6
f 647/5/6 648/5/6 650/5/6
f 650/5/6 648/5/6 651/5/6
f 652/5/6 653/5/6 656/5/6
f 656/5/6 653/5/6 657/5/6
f 654/4/6 655/4/6 660/4/6
f 660/4/6 655/4/6 661/4/6
f 661/4/6 655/4/6 662/4/6
f 657/5/6 658/5/6 665/5/6
f 665/5/6 658/5/6 666/5/6
f 659/4/6 660/4/6 667/4/6
f 661/4/6 662/4/6 668/4/6
f 668/4/6 662/4/6 669/4/6
f 663/5/6 664/5/6 670/5/6
f 670/5/6 664/5/6 671/5/6
f 659/4/6 667/4/6 673/4/6
f 667/4/6 668/4/6 673/4/6
f 673/4/6 668/4/6 674/4/6
f 674/4/6 668/4/6 675/4/6
f 669/4/6 670/4/6 676/4/6
f 672/4/6 673/4/6 677/4/6
f 677/4/6 673/4/6 678/4/6
f 674/4/6 675/4/6 679/4/6
f 675/4/6 676/4/6 679/4/6
f 679/4/6 676/4/6 680/4/6
f 676/4/6 670/4/6 681/4/6
f 680/4/6 676/4/6 681/4/6
f 679/4/6 680/4/6 682/4/6
f 678/4/6 679/4/6 682/4/6
f 682/4/6 680/4/6 683/4/6
f 684/5/6 685/5/6 687/5/6
f 687/5/6 685/5/6 688/5/6
f 686/5/6 687/5/6 691/5/6
f 691/5/6 687/5/6 692/5/6
f 689/4/6 690/4/6 695/4/6
f 695/4/6 690/4/6 696/4/6
f 693/5/6 694/5/6 698/5/6
f 698/5/6 694/5/6 699/5/6
f 696/4/6 697/4/6 702/4/6
f 702/4/6 697/4/6 703/4/6
f 700/4/6 701/4/6 704/4/6
f 704/4/6 701/4/6 705/4/6
f 706/5/6 707/5/6 708/5/6
f 708/5/6 707/5/6 709/5/6
f 710/5/6 711/5/6 712/5/6
f 712/5/6 711/5/6 713/5/6
