# MagicaVoxel @ Ephtracy

# group
o 

# material
mtllib Ship_Mast.mtl
usemtl palette

# normals
vn -1 0 0
vn 1 0 0
vn 0 0 1
vn 0 0 -1
vn 0 -1 0
vn 0 1 0

# texcoords
vt 0.00585938 0.5
vt 0.537109 0.5

# verts
v 0 1.3 0.7
v 0 1.3 -0.7
v 0 1.4 0.7
v 0 1.4 -0.7
v 0.2 1.2 0.7
v 0.2 1.2 -0.7
v 0.2 1.3 0.7
v 0.2 1.3 0.5
v 0.2 1.3 0.3
v 0.2 1.3 0.1
v 0.2 1.3 -0.1
v 0.2 1.3 -0.3
v 0.2 1.3 -0.5
v 0.2 1.3 -0.7
v 0.3 0.4 0.6
v 0.3 0.4 -0.6
v 0.3 0.5 0.7
v 0.3 0.5 0.6
v 0.3 0.5 -0.6
v 0.3 0.5 -0.7
v 0.3 0.6 0.7
v 0.3 0.6 0.6
v 0.3 0.6 -0.6
v 0.3 0.6 -0.7
v 0.3 1 0.7
v 0.3 1 0.6
v 0.3 1 -0.6
v 0.3 1 -0.7
v 0.3 1.1 0.6
v 0.3 1.1 -0.6
v 0.3 1.2 0.7
v 0.3 1.2 -0.7
v 0.4 0.5 0.6
v 0.4 0.5 -0.6
v 0.4 0.6 0.7
v 0.4 0.6 0.6
v 0.4 0.6 -0.6
v 0.4 0.6 -0.7
v 0.4 1 0.7
v 0.4 1 0.6
v 0.4 1 -0.6
v 0.4 1 -0.7
v 0.4 1.1 0.6
v 0.4 1.1 -0.6
v 0.1 1.3 0.5
v 0.1 1.3 0.3
v 0.1 1.3 0.1
v 0.1 1.3 -0.1
v 0.1 1.3 -0.3
v 0.1 1.3 -0.5
v 0.1 1.4 0.5
v 0.1 1.4 0.3
v 0.1 1.4 0.1
v 0.1 1.4 -0.1
v 0.1 1.4 -0.3
v 0.1 1.4 -0.5
v 0.2 1.3 0.7
v 0.2 1.3 0.5
v 0.2 1.3 0.3
v 0.2 1.3 0.1
v 0.2 1.3 -0.1
v 0.2 1.3 -0.3
v 0.2 1.3 -0.5
v 0.2 1.3 -0.7
v 0.2 1.4 0.7
v 0.2 1.4 0.5
v 0.2 1.4 0.3
v 0.2 1.4 0.1
v 0.2 1.4 -0.1
v 0.2 1.4 -0.3
v 0.2 1.4 -0.5
v 0.2 1.4 -0.7
v 0.3 1.2 0.7
v 0.3 1.2 -0.7
v 0.3 1.3 0.7
v 0.3 1.3 -0.7
v 0.4 0.4 0.6
v 0.4 0.4 -0.6
v 0.4 0.5 0.7
v 0.4 0.5 0.6
v 0.4 0.5 -0.6
v 0.4 0.5 -0.7
v 0.4 0.6 0.7
v 0.4 0.6 0.6
v 0.4 0.6 -0.6
v 0.4 0.6 -0.7
v 0.4 1 0.7
v 0.4 1 0.6
v 0.4 1 -0.6
v 0.4 1 -0.7
v 0.4 1.1 0.6
v 0.4 1.1 -0.6
v 0.4 1.2 0.7
v 0.4 1.2 -0.7
v 0.5 0.5 0.6
v 0.5 0.5 -0.6
v 0.5 0.6 0.7
v 0.5 0.6 0.6
v 0.5 0.6 -0.6
v 0.5 0.6 -0.7
v 0.5 1 0.7
v 0.5 1 0.6
v 0.5 1 -0.6
v 0.5 1 -0.7
v 0.5 1.1 0.6
v 0.5 1.1 -0.6
v 0 1.3 0.7
v 0 1.4 0.7
v 0.1 1.3 0.7
v 0.1 1.4 0.7
v 0.2 1.2 0.7
v 0.2 1.3 0.7
v 0.2 1.4 0.7
v 0.3 0.5 0.7
v 0.3 0.6 0.7
v 0.3 1 0.7
v 0.3 1.2 0.7
v 0.3 1.3 0.7
v 0.4 0.5 0.7
v 0.4 0.6 0.7
v 0.4 1 0.7
v 0.4 1.2 0.7
v 0.5 0.6 0.7
v 0.5 1 0.7
v 0.3 0.4 0.6
v 0.3 0.5 0.6
v 0.4 0.4 0.6
v 0.4 0.5 0.6
v 0.4 0.6 0.6
v 0.4 1 0.6
v 0.4 1.1 0.6
v 0.5 0.5 0.6
v 0.5 0.6 0.6
v 0.5 1 0.6
v 0.5 1.1 0.6
v 0.1 1.3 0.3
v 0.1 1.4 0.3
v 0.2 1.3 0.3
v 0.2 1.4 0.3
v 0.1 1.3 -0.1
v 0.1 1.4 -0.1
v 0.2 1.3 -0.1
v 0.2 1.4 -0.1
v 0.1 1.3 -0.5
v 0.1 1.4 -0.5
v 0.2 1.3 -0.5
v 0.2 1.4 -0.5
v 0.3 0.5 -0.6
v 0.3 0.6 -0.6
v 0.3 1 -0.6
v 0.3 1.1 -0.6
v 0.4 0.5 -0.6
v 0.4 0.6 -0.6
v 0.4 1 -0.6
v 0.4 1.1 -0.6
v 0.3 0.5 0.6
v 0.3 0.6 0.6
v 0.3 1 0.6
v 0.3 1.1 0.6
v 0.4 0.5 0.6
v 0.4 0.6 0.6
v 0.4 1 0.6
v 0.4 1.1 0.6
v 0.1 1.3 0.5
v 0.1 1.4 0.5
v 0.2 1.3 0.5
v 0.2 1.4 0.5
v 0.1 1.3 0.1
v 0.1 1.4 0.1
v 0.2 1.3 0.1
v 0.2 1.4 0.1
v 0.1 1.3 -0.3
v 0.1 1.4 -0.3
v 0.2 1.3 -0.3
v 0.2 1.4 -0.3
v 0.3 0.4 -0.6
v 0.3 0.5 -0.6
v 0.4 0.4 -0.6
v 0.4 0.5 -0.6
v 0.4 0.6 -0.6
v 0.4 1 -0.6
v 0.4 1.1 -0.6
v 0.5 0.5 -0.6
v 0.5 0.6 -0.6
v 0.5 1 -0.6
v 0.5 1.1 -0.6
v 0 1.3 -0.7
v 0 1.4 -0.7
v 0.1 1.3 -0.7
v 0.1 1.4 -0.7
v 0.2 1.2 -0.7
v 0.2 1.3 -0.7
v 0.2 1.4 -0.7
v 0.3 0.5 -0.7
v 0.3 0.6 -0.7
v 0.3 1 -0.7
v 0.3 1.2 -0.7
v 0.3 1.3 -0.7
v 0.4 0.5 -0.7
v 0.4 0.6 -0.7
v 0.4 1 -0.7
v 0.4 1.2 -0.7
v 0.5 0.6 -0.7
v 0.5 1 -0.7
v 0.3 0.4 0.6
v 0.4 0.4 0.6
v 0.3 0.4 -0.6
v 0.4 0.4 -0.6
v 0.3 0.5 0.7
v 0.4 0.5 0.7
v 0.3 0.5 0.6
v 0.4 0.5 0.6
v 0.5 0.5 0.6
v 0.3 0.5 -0.6
v 0.4 0.5 -0.6
v 0.5 0.5 -0.6
v 0.3 0.5 -0.7
v 0.4 0.5 -0.7
v 0.4 0.6 0.7
v 0.5 0.6 0.7
v 0.4 0.6 0.6
v 0.5 0.6 0.6
v 0.4 0.6 -0.6
v 0.5 0.6 -0.6
v 0.4 0.6 -0.7
v 0.5 0.6 -0.7
v 0.3 1 0.7
v 0.4 1 0.7
v 0.3 1 0.6
v 0.4 1 0.6
v 0.3 1 -0.6
v 0.4 1 -0.6
v 0.3 1 -0.7
v 0.4 1 -0.7
v 0.3 1.1 0.6
v 0.4 1.1 0.6
v 0.3 1.1 -0.6
v 0.4 1.1 -0.6
v 0.2 1.2 0.7
v 0.3 1.2 0.7
v 0.2 1.2 -0.7
v 0.3 1.2 -0.7
v 0 1.3 0.7
v 0.1 1.3 0.7
v 0.2 1.3 0.7
v 0.1 1.3 0.5
v 0.2 1.3 0.5
v 0.1 1.3 0.3
v 0.2 1.3 0.3
v 0.1 1.3 0.1
v 0.2 1.3 0.1
v 0.1 1.3 -0.1
v 0.2 1.3 -0.1
v 0.1 1.3 -0.3
v 0.2 1.3 -0.3
v 0.1 1.3 -0.5
v 0.2 1.3 -0.5
v 0 1.3 -0.7
v 0.1 1.3 -0.7
v 0.2 1.3 -0.7
v 0.3 0.5 0.6
v 0.4 0.5 0.6
v 0.3 0.5 -0.6
v 0.4 0.5 -0.6
v 0.3 0.6 0.7
v 0.4 0.6 0.7
v 0.3 0.6 0.6
v 0.4 0.6 0.6
v 0.3 0.6 -0.6
v 0.4 0.6 -0.6
v 0.3 0.6 -0.7
v 0.4 0.6 -0.7
v 0.4 1 0.7
v 0.5 1 0.7
v 0.4 1 0.6
v 0.5 1 0.6
v 0.4 1 -0.6
v 0.5 1 -0.6
v 0.4 1 -0.7
v 0.5 1 -0.7
v 0.4 1.1 0.6
v 0.5 1.1 0.6
v 0.4 1.1 -0.6
v 0.5 1.1 -0.6
v 0.3 1.2 0.7
v 0.4 1.2 0.7
v 0.3 1.2 -0.7
v 0.4 1.2 -0.7
v 0.2 1.3 0.7
v 0.3 1.3 0.7
v 0.2 1.3 0.5
v 0.2 1.3 0.3
v 0.2 1.3 0.1
v 0.2 1.3 -0.1
v 0.2 1.3 -0.3
v 0.2 1.3 -0.5
v 0.2 1.3 -0.7
v 0.3 1.3 -0.7
v 0 1.4 0.7
v 0.1 1.4 0.7
v 0.2 1.4 0.7
v 0.1 1.4 0.5
v 0.2 1.4 0.5
v 0.1 1.4 0.3
v 0.2 1.4 0.3
v 0.1 1.4 0.1
v 0.2 1.4 0.1
v 0.1 1.4 -0.1
v 0.2 1.4 -0.1
v 0.1 1.4 -0.3
v 0.2 1.4 -0.3
v 0.1 1.4 -0.5
v 0.2 1.4 -0.5
v 0 1.4 -0.7
v 0.1 1.4 -0.7
v 0.2 1.4 -0.7

# faces
f 3/2/1 2/2/1 1/2/1
f 4/2/1 2/2/1 3/2/1
f 7/1/1 6/1/1 5/1/1
f 8/1/1 6/1/1 7/1/1
f 9/1/1 6/1/1 8/1/1
f 10/1/1 6/1/1 9/1/1
f 11/1/1 6/1/1 10/1/1
f 12/1/1 6/1/1 11/1/1
f 13/1/1 6/1/1 12/1/1
f 14/1/1 6/1/1 13/1/1
f 18/1/1 16/1/1 15/1/1
f 19/1/1 16/1/1 18/1/1
f 21/1/1 18/1/1 17/1/1
f 22/1/1 18/1/1 21/1/1
f 23/1/1 20/1/1 19/1/1
f 24/1/1 20/1/1 23/1/1
f 29/1/1 26/1/1 25/1/1
f 30/1/1 28/1/1 27/1/1
f 31/1/1 29/1/1 25/1/1
f 31/1/1 30/1/1 29/1/1
f 32/1/1 28/1/1 30/1/1
f 32/1/1 30/1/1 31/1/1
f 36/1/1 34/1/1 33/1/1
f 37/1/1 34/1/1 36/1/1
f 39/1/1 36/1/1 35/1/1
f 39/1/1 38/1/1 37/1/1
f 39/1/1 37/1/1 36/1/1
f 40/1/1 38/1/1 39/1/1
f 41/1/1 38/1/1 40/1/1
f 42/1/1 38/1/1 41/1/1
f 43/1/1 41/1/1 40/1/1
f 44/1/1 41/1/1 43/1/1
f 45/2/2 46/2/2 51/2/2
f 51/2/2 46/2/2 52/2/2
f 47/2/2 48/2/2 53/2/2
f 53/2/2 48/2/2 54/2/2
f 49/2/2 50/2/2 55/2/2
f 55/2/2 50/2/2 56/2/2
f 57/1/2 58/1/2 65/1/2
f 65/1/2 58/1/2 66/1/2
f 59/1/2 60/1/2 67/1/2
f 67/1/2 60/1/2 68/1/2
f 61/1/2 62/1/2 69/1/2
f 69/1/2 62/1/2 70/1/2
f 63/1/2 64/1/2 71/1/2
f 71/1/2 64/1/2 72/1/2
f 73/1/2 74/1/2 75/1/2
f 75/1/2 74/1/2 76/1/2
f 77/1/2 78/1/2 80/1/2
f 80/1/2 78/1/2 81/1/2
f 79/1/2 80/1/2 83/1/2
f 83/1/2 80/1/2 84/1/2
f 81/1/2 82/1/2 85/1/2
f 85/1/2 82/1/2 86/1/2
f 87/1/2 88/1/2 91/1/2
f 89/1/2 90/1/2 92/1/2
f 87/1/2 91/1/2 93/1/2
f 91/1/2 92/1/2 93/1/2
f 92/1/2 90/1/2 94/1/2
f 93/1/2 92/1/2 94/1/2
f 95/1/2 96/1/2 98/1/2
f 98/1/2 96/1/2 99/1/2
f 97/1/2 98/1/2 101/1/2
f 99/1/2 100/1/2 101/1/2
f 98/1/2 99/1/2 101/1/2
f 101/1/2 100/1/2 102/1/2
f 102/1/2 100/1/2 103/1/2
f 103/1/2 100/1/2 104/1/2
f 102/1/2 103/1/2 105/1/2
f 105/1/2 103/1/2 106/1/2
f 109/2/3 108/2/3 107/2/3
f 110/2/3 108/2/3 109/2/3
f 112/1/3 110/1/3 109/1/3
f 113/1/3 110/1/3 112/1/3
f 117/1/3 112/1/3 111/1/3
f 118/1/3 112/1/3 117/1/3
f 119/1/3 115/1/3 114/1/3
f 120/1/3 115/1/3 119/1/3
f 121/1/3 117/1/3 116/1/3
f 122/1/3 117/1/3 121/1/3
f 123/1/3 121/1/3 120/1/3
f 124/1/3 121/1/3 123/1/3
f 127/1/3 126/1/3 125/1/3
f 128/1/3 126/1/3 127/1/3
f 132/1/3 129/1/3 128/1/3
f 133/1/3 129/1/3 132/1/3
f 134/1/3 131/1/3 130/1/3
f 135/1/3 131/1/3 134/1/3
f 138/1/3 137/1/3 136/1/3
f 139/1/3 137/1/3 138/1/3
f 142/1/3 141/1/3 140/1/3
f 143/1/3 141/1/3 142/1/3
f 146/1/3 145/1/3 144/1/3
f 147/1/3 145/1/3 146/1/3
f 152/1/3 149/1/3 148/1/3
f 153/1/3 149/1/3 152/1/3
f 154/1/3 151/1/3 150/1/3
f 155/1/3 151/1/3 154/1/3
f 156/1/4 157/1/4 160/1/4
f 160/1/4 157/1/4 161/1/4
f 158/1/4 159/1/4 162/1/4
f 162/1/4 159/1/4 163/1/4
f 164/1/4 165/1/4 166/1/4
f 166/1/4 165/1/4 167/1/4
f 168/1/4 169/1/4 170/1/4
f 170/1/4 169/1/4 171/1/4
f 172/1/4 173/1/4 174/1/4
f 174/1/4 173/1/4 175/1/4
f 176/1/4 177/1/4 178/1/4
f 178/1/4 177/1/4 179/1/4
f 179/1/4 180/1/4 183/1/4
f 183/1/4 180/1/4 184/1/4
f 181/1/4 182/1/4 185/1/4
f 185/1/4 182/1/4 186/1/4
f 187/2/4 188/2/4 189/2/4
f 189/2/4 188/2/4 190/2/4
f 189/1/4 190/1/4 192/1/4
f 192/1/4 190/1/4 193/1/4
f 191/1/4 192/1/4 197/1/4
f 197/1/4 192/1/4 198/1/4
f 194/1/4 195/1/4 199/1/4
f 199/1/4 195/1/4 200/1/4
f 196/1/4 197/1/4 201/1/4
f 201/1/4 197/1/4 202/1/4
f 200/1/4 201/1/4 203/1/4
f 203/1/4 201/1/4 204/1/4
f 207/1/5 206/1/5 205/1/5
f 208/1/5 206/1/5 207/1/5
f 211/1/5 210/1/5 209/1/5
f 212/1/5 210/1/5 211/1/5
f 215/1/5 213/1/5 212/1/5
f 216/1/5 213/1/5 215/1/5
f 217/1/5 215/1/5 214/1/5
f 218/1/5 215/1/5 217/1/5
f 221/1/5 220/1/5 219/1/5
f 222/1/5 220/1/5 221/1/5
f 225/1/5 224/1/5 223/1/5
f 226/1/5 224/1/5 225/1/5
f 229/1/5 228/1/5 227/1/5
f 230/1/5 228/1/5 229/1/5
f 233/1/5 232/1/5 231/1/5
f 234/1/5 232/1/5 233/1/5
f 237/1/5 236/1/5 235/1/5
f 238/1/5 236/1/5 237/1/5
f 241/1/5 240/1/5 239/1/5
f 242/1/5 240/1/5 241/1/5
f 246/2/5 244/2/5 243/2/5
f 246/1/5 245/1/5 244/1/5
f 247/1/5 245/1/5 246/1/5
f 248/2/5 246/2/5 243/2/5
f 250/2/5 248/2/5 243/2/5
f 250/1/5 249/1/5 248/1/5
f 251/1/5 249/1/5 250/1/5
f 252/2/5 250/2/5 243/2/5
f 254/2/5 252/2/5 243/2/5
f 254/1/5 253/1/5 252/1/5
f 255/1/5 253/1/5 254/1/5
f 256/2/5 254/2/5 243/2/5
f 258/2/5 256/2/5 243/2/5
f 259/1/5 257/1/5 256/1/5
f 259/2/5 256/2/5 258/2/5
f 260/1/5 257/1/5 259/1/5
f 261/1/6 262/1/6 263/1/6
f 263/1/6 262/1/6 264/1/6
f 265/1/6 266/1/6 267/1/6
f 267/1/6 266/1/6 268/1/6
f 269/1/6 270/1/6 271/1/6
f 271/1/6 270/1/6 272/1/6
f 273/1/6 274/1/6 275/1/6
f 275/1/6 274/1/6 276/1/6
f 277/1/6 278/1/6 279/1/6
f 279/1/6 278/1/6 280/1/6
f 281/1/6 282/1/6 283/1/6
f 283/1/6 282/1/6 284/1/6
f 285/1/6 286/1/6 287/1/6
f 287/1/6 286/1/6 288/1/6
f 289/1/6 290/1/6 291/1/6
f 291/1/6 290/1/6 292/1/6
f 292/1/6 290/1/6 293/1/6
f 293/1/6 290/1/6 294/1/6
f 294/1/6 290/1/6 295/1/6
f 295/1/6 290/1/6 296/1/6
f 296/1/6 290/1/6 297/1/6
f 297/1/6 290/1/6 298/1/6
f 299/2/6 300/2/6 302/2/6
f 300/1/6 301/1/6 302/1/6
f 302/1/6 301/1/6 303/1/6
f 299/2/6 302/2/6 304/2/6
f 299/2/6 304/2/6 306/2/6
f 304/1/6 305/1/6 306/1/6
f 306/1/6 305/1/6 307/1/6
f 299/2/6 306/2/6 308/2/6
f 299/2/6 308/2/6 310/2/6
f 308/1/6 309/1/6 310/1/6
f 310/1/6 309/1/6 311/1/6
f 299/2/6 310/2/6 312/2/6
f 299/2/6 312/2/6 314/2/6
f 312/1/6 313/1/6 315/1/6
f 314/2/6 312/2/6 315/2/6
f 315/1/6 313/1/6 316/1/6
